<svg xmlns="http://www.w3.org/2000/svg" xmlns:xlink="http://www.w3.org/1999/xlink" version="1.1" id="_x31_dff4cb4-53bd-4ffc-acc1-5e8a2ceb72de" x="0px" y="0px" viewBox="0 0 864.8 658.5" style="enable-background:new 0 0 864.8 658.5;" xml:space="preserve">
<style type="text/css">
	.st0{fill:url(#SVGID_1_);}
	.st1{fill:#E0E0E0;}
	.st2{opacity:0.1;enable-background:new    ;}
	.st3{fill:#0E6BA8;}
	.st4{fill:#805038;}
	.st5{opacity:0.7;}
	.st6{fill:none;}
	.st7{fill:#6762A6;}
	.st8{fill:#FFFFFF;}
	.st9{fill:#252F3E;}
	.st10{fill:#FF9900;}
	.st11{fill:#CAC9C2;}
	.st12{fill:#5072AA;}
	.st13{fill:#4D6796;}
	.st14{fill:#CC4232;}
	.st15{fill:#B23F33;}
	.st16{fill:#ECB02A;}
	.st17{fill:#C79732;}
	.st18{fill:#333333;}
	.st19{fill:url(#SVGID_00000089554839388403465800000013837645846710806945_);}
</style>
<linearGradient id="SVGID_1_" gradientUnits="userSpaceOnUse" x1="156.4126" y1="304.8825" x2="462.3974" y2="304.8825" gradientTransform="matrix(1 0 0 -1 0 658)">
	<stop offset="0" style="stop-color:#808080;stop-opacity:0.25"/>
	<stop offset="0.54" style="stop-color:#808080;stop-opacity:0.12"/>
	<stop offset="1" style="stop-color:#808080;stop-opacity:0.1"/>
</linearGradient>
<path class="st0" d="M341.3,352.9l-2-22.4c32.8-13.9,59.5-45.5,67.5-88.2c0.6,0.1,1.2,0.2,1.9,0.2c10,0,13.9-13.2,13.9-30  c0-11.6-3.6-15.5-9.5-20.5l1.5-62.9c-0.1-1.1-0.2-2.3-0.4-3.8l-0.1-0.6c-0.2-1.3-0.4-2.5-0.6-3.7s-0.5-2.4-0.8-3.8V117  c-0.2-0.9-0.5-1.9-0.8-2.8l0,0c0.1-1.1-0.1-2.1-0.5-3.1c0-1-0.2-2-0.6-2.9c0.1-1.5-0.3-3-1.1-4.2c-0.1-1.1-0.5-2.1-1.1-3  c0.2-1.2,0.1-2.4-0.4-3.6c-0.4-1.2-1.1-2.2-2-2.9c-0.4-2.1-1.6-3.9-3.4-5c-0.5-2.2-2.1-4.1-4.1-5c-0.6-1.2-1.5-2.3-2.6-3  c-0.7-1.8-2-3.2-3.8-4.1c-0.8-1.8-2.4-3.2-4.3-3.9c0,0,0,0-0.1,0c-0.9-1.4-2.3-2.6-3.9-3.2c-0.2-0.1-0.5-0.1-0.7-0.2  c-0.9-1.3-2.2-2.3-3.7-2.8c-0.4-0.1-0.7-0.2-1.1-0.3c-0.9-1.1-2-1.9-3.4-2.3c-0.6-0.2-1.2-0.3-1.8-0.4c-1-1.1-2.4-2-3.9-2.3  c-0.5-0.1-1.1-0.2-1.6-0.2c-0.2,0-0.4,0-0.6,0c-1-0.9-2.1-1.5-3.4-1.8c-0.4-0.1-0.9-0.2-1.3-0.2c-1-1.1-2.3-1.9-3.8-2.2  c-0.5-0.1-1.1-0.2-1.6-0.2c-0.3,0-0.5,0-0.8,0c-0.9-0.8-2-1.3-3.2-1.6c-0.5-0.1-1.1-0.2-1.6-0.2c-0.2,0-0.3,0-0.5,0  c-0.9-0.8-2.1-1.4-3.3-1.7c-0.5-0.1-1.1-0.2-1.6-0.2c-0.4,0-0.7,0-1.1,0.1c-0.7-0.5-1.6-0.8-2.5-1c-0.5-0.1-1.1-0.2-1.6-0.2  c-0.2,0-0.4,0-0.7,0c-0.9-0.7-1.9-1.1-3-1.4c-0.6-0.1-1.1-0.2-1.7-0.2c-0.3,0-0.5,0-0.8,0c-1.2-0.7-2.6-1.1-4-1.1  c-0.1,0-0.3,0-0.4,0s-0.1,0-0.2,0c-1.2-0.7-2.5-1-3.8-1c-0.1,0-0.3,0-0.4,0c-0.5,0-0.9,0.1-1.4,0.2c-1-0.4-2.1-0.7-3.2-0.7  c-0.1,0-0.3,0-0.4,0c-0.6,0-1.2,0.1-1.8,0.3c-0.9-0.3-1.8-0.5-2.8-0.5c-0.1,0-0.3,0-0.4,0c-0.5,0-0.9,0.1-1.3,0.2  c-0.9-0.3-1.9-0.5-2.8-0.5c-0.1,0-0.3,0-0.4,0s-0.2,0-0.3,0c-0.1,0-0.2,0-0.3,0c-0.1,0-0.3,0-0.4,0c-0.3,0-0.7,0-1,0.1  c-0.3,0-0.7-0.1-1-0.1c-0.1,0-0.3,0-0.4,0s-0.2,0-0.3,0c-0.1,0-0.2,0-0.3,0c-0.1,0-0.3,0-0.4,0c-1,0-1.9,0.2-2.8,0.5  c-0.4-0.1-0.9-0.2-1.3-0.2c-0.1,0-0.3,0-0.4,0c-1,0-1.9,0.2-2.8,0.5c-0.6-0.2-1.2-0.3-1.8-0.3c-0.1,0-0.3,0-0.4,0  c-1.1,0-2.2,0.2-3.2,0.7c-0.4-0.1-0.9-0.2-1.4-0.2c-0.1,0-0.3,0-0.4,0c-1.3,0-2.7,0.4-3.8,1c-0.1,0-0.1,0-0.2,0s-0.3,0-0.4,0  c-1.5,0-2.8,0.4-4,1.1c-0.3,0-0.5,0-0.8,0c-0.6,0-1.1,0.1-1.7,0.2c-1.1,0.2-2.1,0.7-3,1.4c-0.2,0-0.4,0-0.7,0  c-0.5,0-1.1,0.1-1.6,0.2c-0.9,0.2-1.7,0.6-2.5,1c-0.3,0-0.7-0.1-1.1-0.1c-0.5,0-1.1,0.1-1.6,0.2c-1.2,0.3-2.4,0.9-3.3,1.7  c-0.2,0-0.3,0-0.5,0c-0.5,0-1.1,0.1-1.6,0.2c-1.2,0.3-2.3,0.8-3.2,1.6c-0.3,0-0.5,0-0.8,0c-0.5,0-1.1,0.1-1.6,0.2  c-1.5,0.3-2.8,1.1-3.8,2.2c-0.4,0-0.9,0.1-1.3,0.2c-1.3,0.3-2.5,0.9-3.4,1.8c-0.2,0-0.4,0-0.6,0c-0.5,0-1.1,0.1-1.6,0.2  c-1.5,0.3-2.9,1.2-3.9,2.3c-0.6,0.1-1.2,0.2-1.8,0.4c-1.3,0.5-2.5,1.3-3.4,2.3c-0.4,0.1-0.7,0.2-1.1,0.3c-1.5,0.5-2.8,1.5-3.7,2.8  c-0.2,0.1-0.5,0.1-0.7,0.2c-1.7,0.6-3,1.7-3.9,3.2c0,0,0,0-0.1,0c-1.9,0.7-3.5,2.1-4.3,3.9c-1.8,0.8-3.1,2.3-3.8,4.1  c-1.1,0.8-2,1.8-2.6,3c-2,1-3.5,2.8-4.1,5c-1.8,1.1-3,2.9-3.4,5c-0.9,0.8-1.6,1.8-2,2.9c-0.4,1.2-0.6,2.4-0.4,3.6  c-0.6,0.9-1,1.9-1.1,2.9c-0.8,1.2-1.3,2.7-1.1,4.2c-0.4,0.9-0.6,1.9-0.6,2.9c-0.4,0.9-0.5,1.9-0.5,2.9c-0.2,0.8-0.4,1.6-0.7,2.4  l-0.1,0.4c-0.3,1.2-0.6,2.3-0.8,3.5c-0.2,1-0.4,2-0.6,3.2l-0.1,0.8c-0.2,1.3-0.3,2.3-0.4,3.3l0.6,61.9c-4.7,5.4-7.5,13-7.5,23  c0,16.8,3.8,30,13.9,30c0.5,0,1.1,0,1.6-0.1c8,42.6,34.1,74.1,66.9,88l-1.4,22.5c-22.6-1.8-145.6-2-117.1,211.7l18.3,67.4l4.1-0.2  c1.2,15.8,15.1,27.6,30.9,26.4c12.2-1,22.4-9.5,25.5-21.3c25.9-0.1,55.1-0.2,70-0.2s44.2,0.1,70,0.2c4,15.4,19.7,24.6,35,20.6  c11.9-3.1,20.5-13.4,21.4-25.7l4.1,0.2l18.3-67.4C486.8,351,363.9,351.1,341.3,352.9z"/>
<rect y="625.2" class="st1" width="645.6" height="21.9"/>
<rect x="27.4" y="647" class="st1" width="590.9" height="9"/>
<rect x="27.4" y="647" class="st2" width="590.9" height="3"/>
<path class="st2" d="M193.4,626.8c0,0,86.6-0.3,116.1-0.3s116.1,0.3,116.1,0.3v-12.6H193.4V626.8z"/>
<path class="st3" d="M425.6,624.3c0,0-86.6-0.3-116.1-0.3s-116.1,0.3-116.1,0.3V465c0-64.1,52-116.1,116.1-116.1l0,0  c64.1,0,116.1,52,116.1,116.1l0,0V624.3z"/>
<path class="st4" d="M298.5,290.8h22c9.3,0,16.8,7.5,16.8,16.8l0,0v46.3c0,15.3-12.4,27.8-27.8,27.8l0,0l0,0  c-15.3,0-27.8-12.4-27.8-27.8l0,0v-46.3C281.7,298.3,289.2,290.8,298.5,290.8L298.5,290.8z"/>
<path class="st2" d="M281.7,337.1c19,11.4,38.5,11.1,55.5-0.1v-43.6h-55.5V337.1z"/>
<path class="st3" d="M336.8,352.5c0,0,146.8-22.9,116.6,204.3l-17.7,65.1l-50.5-2c0,0,32.8-75.7,12.6-126.2S336.8,352.5,336.8,352.5  z"/>
<path class="st3" d="M282.2,352.5c0,0-146.8-22.9-116.6,204.3l17.7,65.1l50.5-2c0,0-32.8-75.7-12.6-126.2S282.2,352.5,282.2,352.5z"/>
<path class="st2" d="M218.6,452.6c0,0-10.1,78,7.6,100.7"/>
<path class="st2" d="M400.4,454.6c0,0,10.1,76-7.6,98.7"/>
<g class="st5">
	<path class="st6" d="M239.4,461h140.1c11.8,0,21.3,9.6,21.3,21.3v119.3c0,11.8-9.6,21.3-21.3,21.3H239.4   c-11.8,0-21.3-9.6-21.3-21.3V482.3C218,470.6,227.6,461,239.4,461z"/>
</g>
<path class="st1" d="M242.8,464h133.3c11.8,0,21.3,9.6,21.3,21.3v113.3c0,11.8-9.6,21.3-21.3,21.3H242.8c-11.8,0-21.3-9.6-21.3-21.3  V485.3C221.4,473.6,231,464,242.8,464z"/>
<path class="st7" d="M275.9,608.9v-11.7c0-0.6-0.5-1.2-1.1-1.2c-0.1,0-0.1,0-0.2,0c-1.7,0-3.3,0.4-4.8,1.1v11.8h-3.3v-21.7h3.3v7.2  c1.7-0.7,3.5-1,5.3-1.1c3,0,4.1,1.8,4.1,4.4v11.2H275.9L275.9,608.9z M285.3,601.8c0.1,3.9,0.9,4.7,3.3,4.7c2-0.1,3.9-0.5,5.7-1.3  l0.5,2.5c-2,1-4.2,1.5-6.4,1.6c-5.5,0-6.3-3-6.3-7.8c-0.1-2.4,0.2-4.9,0.8-7.2c2.1-0.7,4.4-1.1,6.6-1c4.5,0,5.9,2.5,5.9,6.9v1.7  L285.3,601.8L285.3,601.8z M289.4,596.1c-1.3,0-2.6,0.1-3.8,0.3c-0.2,1.1-0.3,2.2-0.4,3.2h6.9C292.1,597.3,291.7,596.1,289.4,596.1z   M301.4,597.1v11.8h-3.3v-13.3c2.4-1.2,5-2,7.6-2.1v2.7C304.3,596.3,302.8,596.6,301.4,597.1L301.4,597.1z M314.4,609.3  c-4.9,0-7.1-2.4-7.1-7.9c0-5.8,2.9-8.1,7.1-8.1c4.9,0,7.1,2.4,7.1,7.9C321.6,607.1,318.6,609.3,314.4,609.3z M314.4,596.1  c-2.5,0-3.9,1.4-3.9,5.3c0,4.2,1.2,5.2,3.9,5.2c2.5,0,3.9-1.4,3.9-5.3C318.4,597,317.2,596.1,314.4,596.1L314.4,596.1z M337.4,608.9  h-3.9c-0.9-2.6-2.3-4.9-4.1-7h-1.7v7h-3.2v-21.7h3.3v12.5h1.5c1.6-1.8,3-3.8,3.9-6h3.7c-1.2,2.4-2.8,4.7-4.7,6.6  C334.3,603,336.1,605.8,337.4,608.9L337.4,608.9z M343.6,609.3c-3,0-4.1-1.8-4.1-4.4v-11.2h3.3v11.7c0,0.6,0.5,1.2,1.1,1.2  c0.1,0,0.1,0,0.2,0c1.7,0,3.4-0.4,5-1.1v-11.8h3.3v13.2C349.7,608.5,346.7,609.3,343.6,609.3L343.6,609.3z M342.2,581.7h-65.6  c-5.6,0-10.2-4.5-10.2-10.1l0,0v-86.3c0-5.6,4.5-10.2,10.2-10.2h65.6c5.6,0,10.2,4.5,10.2,10.1l0,0v86.3  C352.4,577.2,347.9,581.7,342.2,581.7L342.2,581.7L342.2,581.7z"/>
<path class="st8" d="M320.3,567v-42.3c0,0,2.8-10.1-33.9,4.1c-0.1,0.2-0.1-39.1-0.1-39.1l12-0.1v25.2c0,0,33.5-13.2,33.5,10V567  H320.3L320.3,567z M327.1,504.9h-12.7c4.6-5.6,8.7-15.2,8.7-15.2h13.1C336.2,489.7,334,496,327.1,504.9L327.1,504.9z M286.5,567  v-24.1l12,12.1L286.5,567z"/>
<g class="st5">
	<path class="st6" d="M703.4,387h140.1c11.8,0,21.3,9.6,21.3,21.3v119.3c0,11.8-9.6,21.3-21.3,21.3H703.4   c-11.8,0-21.3-9.6-21.3-21.3V408.3C682,396.6,691.6,387,703.4,387z"/>
</g>
<path class="st1" d="M706.8,390h133.3c11.8,0,21.3,9.6,21.3,21.3v113.3c0,11.8-9.6,21.3-21.3,21.3H706.8c-11.8,0-21.3-9.6-21.3-21.3  V411.3C685.4,399.6,695,390,706.8,390z"/>
<path class="st9" d="M742,456.2c0,1.4,0.1,2.9,0.5,4.3c0.4,1.2,0.9,2.3,1.5,3.5c0.2,0.3,0.3,0.7,0.3,1.1c-0.1,0.6-0.4,1.1-0.9,1.4  l-3,2c-0.4,0.3-0.8,0.4-1.2,0.4c-0.5,0-1.1-0.3-1.4-0.7c-0.6-0.7-1.2-1.4-1.7-2.2c-0.5-0.8-1-1.7-1.5-2.8c-3.4,4.3-8.6,6.7-14.1,6.6  c-4,0-7.2-1.2-9.6-3.5c-5-5.5-4.7-14,0.8-19.1c2.9-2.5,6.8-3.7,11.7-3.7c1.7,0,3.4,0.1,5.1,0.4c1.8,0.2,3.6,0.6,5.5,1v-3.5  c0-3.6-0.8-6.2-2.2-7.7s-4.1-2.2-7.8-2.2c-1.7,0-3.5,0.2-5.2,0.6c-1.8,0.4-3.5,1-5.2,1.6c-0.5,0.2-1.1,0.5-1.7,0.6  c-0.2,0.1-0.5,0.1-0.8,0.1c-0.7,0-1-0.5-1-1.5v-2.3c-0.1-0.6,0.1-1.2,0.3-1.7c0.4-0.4,0.8-0.8,1.3-1c1.9-0.9,3.9-1.7,6-2.2  c2.4-0.6,5-0.9,7.5-0.9c5.7,0,9.9,1.3,12.6,3.9c2.7,2.6,4,6.5,4,11.8L742,456.2L742,456.2z M722.6,463.5c1.7,0,3.3-0.3,4.9-0.9  c1.8-0.6,3.3-1.7,4.5-3.1c0.8-0.9,1.3-1.9,1.6-3.1c0.3-1.4,0.5-2.8,0.5-4.2v-2c-1.5-0.4-2.9-0.6-4.4-0.8c-1.5-0.2-3-0.3-4.5-0.3  c-3.2,0-5.6,0.6-7.1,1.9c-3.1,2.2-3.7,6.5-1.5,9.6C718,462.6,720.2,463.7,722.6,463.5L722.6,463.5z M761,468.7  c-0.6,0.1-1.3-0.1-1.8-0.5c-0.5-0.5-0.8-1.2-1-1.9l-11.2-37c-0.2-0.6-0.4-1.3-0.4-1.9c-0.1-0.6,0.3-1.1,0.9-1.2c0.1,0,0.2,0,0.3,0  h4.7c0.7-0.1,1.3,0.1,1.9,0.5c0.5,0.5,0.8,1.2,1,1.9l8,31.7l7.5-31.7c0.1-0.7,0.4-1.4,0.9-1.9c0.6-0.4,1.2-0.5,1.9-0.5h3.8  c0.7-0.1,1.4,0.1,1.9,0.5c0.5,0.5,0.8,1.2,0.9,1.9l7.6,32.1l8.3-32.1c0.2-0.7,0.5-1.3,1-1.9c0.6-0.4,1.2-0.5,1.9-0.5h4.4  c0.6-0.1,1.1,0.3,1.2,0.9c0,0.1,0,0.2,0,0.3c0,0.3,0,0.5-0.1,0.8c-0.1,0.4-0.2,0.8-0.3,1.2l-11.5,37c-0.1,0.7-0.5,1.4-1,1.9  c-0.5,0.3-1.2,0.5-1.8,0.5h-4.1c-0.7,0.1-1.4-0.1-1.9-0.5c-0.5-0.5-0.8-1.2-0.9-1.9l-7.4-30.9l-7.4,30.8c-0.1,0.7-0.4,1.4-0.9,1.9  c-0.6,0.4-1.2,0.5-1.9,0.5L761,468.7z M822.6,470c-2.5,0-5-0.3-7.4-0.9c-1.9-0.4-3.8-1-5.5-1.9c-0.6-0.3-1.1-0.8-1.5-1.3  c-0.2-0.4-0.3-0.9-0.3-1.3v-2.4c0-1,0.4-1.5,1.1-1.5c0.3,0,0.6,0,0.9,0.1c0.3,0.1,0.7,0.3,1.2,0.5c1.7,0.7,3.5,1.3,5.3,1.7  c1.9,0.4,3.8,0.6,5.7,0.6c2.4,0.1,4.9-0.4,7-1.6c1.6-1,2.5-2.7,2.5-4.5c0-1.2-0.4-2.5-1.3-3.3c-1.4-1.2-3.1-2-4.8-2.5l-7-2.2  c-3.5-1.1-6.1-2.7-7.7-4.9c-1.5-2-2.4-4.4-2.4-6.9c0-1.9,0.4-3.7,1.3-5.3c0.9-1.5,2-2.9,3.4-3.9c1.5-1.1,3.2-2,5-2.5  c2-0.6,4-0.8,6-0.8c1.1,0,2.1,0.1,3.2,0.2c1.1,0.1,2.1,0.3,3.1,0.5s1.9,0.5,2.7,0.8c0.7,0.2,1.4,0.5,2,0.9c0.6,0.3,1.1,0.7,1.4,1.2  c0.3,0.5,0.5,1,0.4,1.6v2.2c0,1-0.4,1.5-1.1,1.5c-0.6-0.1-1.3-0.3-1.8-0.6c-2.9-1.3-6-1.9-9.2-1.9c-2.2-0.1-4.4,0.3-6.4,1.3  c-1.5,0.9-2.4,2.5-2.2,4.3c0,1.3,0.5,2.5,1.4,3.4c1.6,1.2,3.3,2.1,5.3,2.6l6.8,2.2c3.4,1.1,5.9,2.6,7.4,4.6c1.5,1.9,2.2,4.3,2.2,6.7  c0,1.9-0.4,3.8-1.2,5.6c-0.9,1.6-2,3.1-3.5,4.2c-1.6,1.2-3.4,2.1-5.3,2.7C827.1,469.6,824.8,470,822.6,470L822.6,470z"/>
<path class="st10" d="M831.6,493.2C815.8,504.9,793,511,773.3,511c-26.3,0.1-51.7-9.5-71.2-27.2c-1.5-1.3-0.1-3.2,1.6-2.1  c38.3,22.1,84.8,25,125.6,7.8C831.9,488.4,834.2,491.3,831.6,493.2L831.6,493.2z"/>
<path class="st10" d="M838.2,485.8c-2-2.6-13.3-1.2-18.4-0.6c-1.5,0.2-1.8-1.2-0.4-2.2c9-6.3,23.8-4.5,25.5-2.4s-0.5,17-8.9,24  c-1.3,1.1-2.5,0.5-2-0.9C835.9,499,840.2,488.3,838.2,485.8z"/>
<g class="st5">
	<path class="st6" d="M594.4,115h140.1c11.8,0,21.3,9.6,21.3,21.3v119.3c0,11.8-9.6,21.3-21.3,21.3H594.4   c-11.8,0-21.3-9.6-21.3-21.3V136.3C573,124.6,582.6,115,594.4,115z"/>
</g>
<path class="st1" d="M597.8,118h133.3c11.8,0,21.3,9.6,21.3,21.3v113.3c0,11.8-9.6,21.3-21.3,21.3H597.8c-11.8,0-21.3-9.6-21.3-21.3  V139.3C576.4,127.6,586,118,597.8,118z"/>
<path class="st11" d="M639.9,236.6l-23.7-41l23.7-41h47.3l23.7,41l-23.7,41H639.9"/>
<path class="st8" d="M664.4,214.4c-10.2,0-18.4-8.3-18.4-18.4s8.3-18.4,18.4-18.4c10.2,0,18.4,8.3,18.4,18.4  C682.8,206.1,674.6,214.3,664.4,214.4"/>
<path class="st12" d="M701.5,140.9c-1.8-2.7-4.7-4.4-7.9-4.6h-58.3c-3.2,0.2-6.1,1.9-7.9,4.6l-17,29.5c-0.2,1.8,0.2,3.7,1.1,5.4  l11.5,19.7l20.6-35.6h65.1c1.7,0.1,3.3,0.6,4.8,1.5L701.5,140.9"/>
<path class="st13" d="M611.1,169.2l-0.8,1.3c-0.2,1.8,0.2,3.7,1.1,5.4l11.5,19.7L629,185L611.1,169.2"/>
<path class="st8" d="M636.8,151.5c-2,0-3.6-1.6-3.6-3.6s1.6-3.6,3.6-3.6s3.6,1.6,3.6,3.6l0,0C640.3,149.9,638.7,151.5,636.8,151.5   M695.1,148c0,1.8-1.4,3.3-3.3,3.3c-1.8,0-3.3-1.4-3.3-3.3v-0.1c0-1.8,1.5-3.3,3.3-3.3C693.6,144.7,695.1,146.2,695.1,148z"/>
<path class="st14" d="M730.6,191.4l-17.3-30c-1.4-0.9-3.1-1.4-4.8-1.5h-23.4l20.3,35.8l-32.1,56.8c-0.8,1.3-2,2.4-3.3,3.2h23.6  c3.2-0.2,6.1-1.9,7.9-4.6l29.2-50.5C732.1,197.7,732.1,194.3,730.6,191.4"/>
<path class="st15" d="M714.1,162.8l-0.8-1.4c-1.4-0.9-3.1-1.4-4.8-1.5H685l6.1,10.8L714.1,162.8"/>
<path class="st8" d="M691.8,246.9c-2,0-3.6-1.6-3.6-3.6s1.6-3.6,3.6-3.6s3.6,1.6,3.6,3.6l0,0C695.3,245.3,693.7,246.9,691.8,246.9   M719.5,199.5c-2,0-3.6-1.6-3.6-3.6s1.6-3.6,3.6-3.6s3.6,1.6,3.6,3.6l0,0C723,197.9,721.4,199.5,719.5,199.5"/>
<path class="st16" d="M643.9,231.5l-32.5-55.7c-0.9-1.6-1.2-3.5-1.1-5.4l-12.1,21c-1.4,2.9-1.4,6.3,0,9.1l29.2,50.5  c1.8,2.7,4.7,4.4,7.9,4.6H670c1.3-0.8,2.5-1.8,3.3-3.2l11.9-21L643.9,231.5"/>
<path class="st17" d="M668,255.6h2c1.3-0.8,2.5-1.8,3.3-3.2l11.9-21h-12.6L668,255.6"/>
<path class="st8" d="M636.8,246.9c-2,0-3.6-1.6-3.6-3.6s1.6-3.6,3.6-3.6s3.6,1.6,3.6,3.6l0,0C640.3,245.3,638.7,246.9,636.8,246.9   M609,199.5c-2,0-3.6-1.6-3.6-3.6s1.6-3.6,3.6-3.6s3.6,1.6,3.6,3.6l0,0C612.6,197.9,611,199.5,609,199.5"/>
<path class="st18" d="M216,188.4"/>
<path class="st4" d="M413,187.9l-1-22.8v-0.6l-1.5-35c-1.9-26.5-19.2-49.6-44.4-59.1l-0.4-0.2c-18.2-6.9-37.4-10.4-56.6-10.4  c-19.5,0-38.9,3.6-57.4,10.7c-24.5,9.5-41.5,31.7-44,57.6l-3.4,61.5c-4.4,4.3-7.5,13-7.5,23c0,14.4,6.2,26,13.9,26  c1.7,0,3.2-0.5,4.7-1.5c8.8,56.3,47.6,98.8,94.1,98.8c46.6,0,85.4-42.5,94.2-99c1.6,1.1,3.2,1.7,5,1.7c7.7,0,13.9-11.6,13.9-26  C422.5,201.1,418.5,191.3,413,187.9z"/>
<linearGradient id="SVGID_00000091709978659591607300000007434878356125787581_" gradientUnits="userSpaceOnUse" x1="308.6001" y1="598.1395" x2="308.6001" y2="463.2721" gradientTransform="matrix(1 0 0 -1 0 658)">
	<stop offset="0.5602" style="stop-color:#342620"/>
	<stop offset="0.8668" style="stop-color:#342620;stop-opacity:0.3"/>
</linearGradient>
<path style="fill:url(#SVGID_00000091709978659591607300000007434878356125787581_);" d="M412,165v-0.6l-1.5-35  c-0.4-5.2-1.3-10.2-2.8-15c0.1-0.2,0.1-0.4,0.1-0.6c0.1-0.7-0.2-1.4-0.6-2c0.1-0.2,0.1-0.4,0.2-0.6c0.1-0.9-0.3-1.7-0.9-2.2  c0.2-0.3,0.3-0.6,0.3-1c0.1-1-0.4-1.9-1.2-2.4c0.1-0.2,0.1-0.3,0.1-0.5c0.1-1.3-0.7-2.5-2-2.8c0.8-0.9,1.1-2.2,0.7-3.4  c-0.4-1.1-1.3-1.8-2.4-2.1c0.1-0.3,0.2-0.7,0.2-1c0-1.8-1.5-3.3-3.3-3.3c-0.1,0-0.1,0-0.2,0c0.1-0.4,0.2-0.8,0.2-1.2  c0-2-1.6-3.6-3.6-3.6c0-1.7-1.2-3.2-2.9-3.5c0-1.5-0.9-2.9-2.4-3.4c-0.4-0.1-0.8-0.2-1.2-0.2c0-1.5-0.9-2.9-2.4-3.4  c-0.5-0.2-1.1-0.2-1.6-0.2c-0.1-1.3-1-2.6-2.4-3c-0.7-0.2-1.4-0.3-2.1-0.1c-0.2-1.3-1-2.5-2.3-2.9c-0.7-0.3-1.5-0.3-2.2-0.1  c-0.3-1.2-1.1-2.2-2.3-2.6c-0.9-0.3-1.8-0.2-2.6,0.1c-0.3-1.3-1.3-2.4-2.7-2.7c-1.1-0.2-2.2,0.1-3,0.7c-0.3-1.3-1.3-2.4-2.7-2.7  c-0.9-0.2-1.7,0-2.4,0.4c-0.3-1.3-1.3-2.4-2.7-2.7c-1.1-0.2-2.2,0.1-3,0.7c-0.4-1.2-1.3-2.2-2.6-2.5c-1-0.2-2,0-2.8,0.6  c-0.4-1.2-1.3-2.1-2.6-2.4c-1-0.2-2,0-2.8,0.6c-0.5-0.8-1.3-1.5-2.3-1.7s-1.9,0-2.7,0.5c-0.5-1-1.4-1.8-2.6-2  c-0.9-0.2-1.8-0.1-2.6,0.3c-0.8-1-2-1.6-3.3-1.5c-0.5,0-0.9,0.1-1.3,0.3c-0.8-0.8-1.9-1.4-3.1-1.3c-0.7,0-1.4,0.3-2,0.7  c-0.8-0.8-1.8-1.2-3-1.1c-0.8,0-1.6,0.3-2.2,0.8c-0.7-0.7-1.7-1.1-2.8-1c-0.7,0-1.3,0.3-1.8,0.6c-0.7-0.6-1.7-1-2.7-0.9  c-0.2,0-0.3,0-0.5,0.1c-0.2,0-0.3-0.1-0.5-0.1c-0.4,0-0.8,0-1.2,0.1c-0.4-0.1-0.8-0.2-1.2-0.1c-0.2,0-0.3,0-0.5,0.1  c-0.2,0-0.3-0.1-0.5-0.1c-1-0.1-2,0.3-2.7,0.9c-0.5-0.3-1.2-0.6-1.8-0.6c-1.1-0.1-2.1,0.3-2.8,1c-0.6-0.5-1.4-0.8-2.2-0.8  c-1.1-0.1-2.2,0.4-3,1.1c-0.6-0.4-1.2-0.6-2-0.7c-1.2-0.1-2.3,0.5-3.1,1.3c-0.4-0.2-0.9-0.3-1.3-0.3c-1.3-0.1-2.5,0.5-3.3,1.5  c-0.8-0.4-1.7-0.5-2.6-0.3c-1.2,0.3-2.1,1-2.6,2c-0.8-0.5-1.7-0.7-2.7-0.5s-1.8,0.9-2.3,1.7c-0.8-0.6-1.8-0.8-2.8-0.6  c-1.3,0.3-2.2,1.2-2.6,2.4c-0.8-0.6-1.8-0.8-2.8-0.6c-1.3,0.3-2.3,1.3-2.6,2.5c-0.8-0.7-1.9-1-3-0.7c-1.4,0.3-2.4,1.4-2.7,2.7  c-0.7-0.4-1.6-0.5-2.4-0.4c-1.4,0.3-2.4,1.4-2.7,2.7c-0.8-0.7-1.9-1-3-0.7c-1.4,0.3-2.4,1.4-2.7,2.7c-0.8-0.3-1.7-0.4-2.6-0.1  c-1.2,0.4-2,1.4-2.3,2.6c-0.7-0.2-1.4-0.2-2.2,0.1c-1.3,0.5-2.2,1.6-2.3,2.9c-0.7-0.2-1.4-0.2-2.1,0.1c-1.4,0.5-2.2,1.7-2.4,3  c-0.5-0.1-1.1,0-1.6,0.2c-1.5,0.5-2.4,1.9-2.4,3.4c-0.4,0-0.8,0-1.2,0.2c-1.5,0.5-2.4,1.9-2.4,3.4c-1.6,0.3-2.9,1.8-2.9,3.5  c-2,0-3.6,1.6-3.6,3.6c0,0.4,0.1,0.8,0.2,1.2c-0.1,0-0.1,0-0.2,0c-1.8,0-3.3,1.5-3.3,3.3c0,0.4,0.1,0.7,0.2,1c-1.1,0.2-2,1-2.4,2.1  c-0.5,1.2-0.1,2.5,0.7,3.4c-1.2,0.3-2.1,1.5-2,2.8c0,0.2,0.1,0.4,0.1,0.5c-0.8,0.5-1.3,1.4-1.2,2.4c0,0.4,0.2,0.7,0.3,1  c-0.6,0.5-1,1.4-0.9,2.2c0,0.2,0.1,0.4,0.2,0.6c-0.5,0.5-0.7,1.2-0.6,2c0,0.2,0.1,0.3,0.1,0.5c-1.4,4.4-2.3,9-2.7,13.7l-3.4,61.5  c1.9-1.9,4.1-3,6.4-3c0.8,0,1.7,0.1,2.5,0.4c0.2,0.1,0.4,0.1,0.6,0.2c0.6,0.2,1.2,0.6,1.8,1l0,0c1.7-13.2,6.6-47.3,17.7-59.1  c14.9-15.9,54.5-27.2,76.4-27.3c21.9,0.2,61.5,11.4,76.4,27.3c11.1,11.8,15.9,46,17.7,59.1l0.9-0.5c0.2-0.1,0.5-0.3,0.7-0.4l0,0l0,0  c1.1-0.5,2.2-0.8,3.3-0.8c1.5,0,3,0.5,4.4,1.3L412,165z M353.4,66L353.4,66L353.4,66L353.4,66z"/>
<path class="st4" d="M208.1,583.5c1.9-1,5.9-3.3,11.8-6.8l1.5-1.2v17.3l-2,1.2c0,0,3.7,4.3,11.7,5.6c8,1.3,22.3,0.9,25.2,6.9  c3.4,7.1-3.6,26.4-18.9,29.6c-17,3.5-43.7-1.6-45.6-15.7c-2-14.4,5.6-25.6,6.9-27.2C201.1,590.3,206.6,584.4,208.1,583.5z"/>
<path class="st4" d="M410.8,583.5c-1.9-1-5.9-3.3-11.8-6.8l-1.5-1.2v17.3l2,1.2c0,0-3.7,4.3-11.7,5.6c-8,1.3-22.3,0.9-25.2,6.9  c-3.4,7.1,3.6,26.4,18.9,29.6c17,3.5,43.7-1.6,45.6-15.7c2-14.4-5.6-25.6-6.9-27.2C417.8,590.3,412.3,584.4,410.8,583.5z"/>
</svg>