<svg
     xmlns="http://www.w3.org/2000/svg"
        viewBox="0 0 64 80"
        x="0px"
        y="0px"
      >
        <title>
          Industry 4.0 - Expanded - 25 - 64 - Stroke 2 - 2020 [Recovered]
        </title>
        <g data-name="Layer 3">
          <g>
            <path d="M34.36,44.24H18.6a1,1,0,0,1-1-1V18.08a1,1,0,0,1,1-1H43.76a1,1,0,0,1,1,1V34.17a1,1,0,0,1-2,0V19.08H19.6V42.24H34.36a1,1,0,0,1,0,2Z" />
            <path d="M18.61,40.65H15a1,1,0,0,1-1-1v-18a1,1,0,0,1,1-1h3.6a1,1,0,0,1,1,1v18A1,1,0,0,1,18.61,40.65Zm-2.6-2h1.6v-16H16Z" />
            <path d="M15,25.37H10.52a1,1,0,0,1,0-2H15a1,1,0,1,1,0,2Z" />
            <path d="M15,31.66H12.7a1,1,0,0,1,0-2H15a1,1,0,1,1,0,2Z" />
            <path d="M15,38H9.39a1,1,0,0,1,0-2H15a1,1,0,1,1,0,2Z" />
            <path d="M47.35,38.07a1,1,0,0,1-1-1V22.67H44.76v11.5a1,1,0,0,1-2,0V21.67a1,1,0,0,1,1-1h3.59a1,1,0,0,1,1,1v15.4A1,1,0,0,1,47.35,38.07Z" />
            <path d="M49.67,31.66H47.36a1,1,0,0,1,0-2h2.31a1,1,0,0,1,0,2Z" />
            <path d="M51.85,25.37H47.36a1,1,0,0,1,0-2h4.49a1,1,0,0,1,0,2Z" />
            <path d="M40.17,19.08h-18a1,1,0,0,1-1-1V14.49a1,1,0,0,1,1-1h18a1,1,0,0,1,1,1v3.59A1,1,0,0,1,40.17,19.08Zm-17-2h16V15.49h-16Z" />
            <path d="M37.47,15.49a1,1,0,0,1-1-1V11a1,1,0,0,1,2,0v3.45A1,1,0,0,1,37.47,15.49Z" />
            <path d="M31.19,15.49a1,1,0,0,1-1-1V12.17a1,1,0,1,1,2,0v2.32A1,1,0,0,1,31.19,15.49Z" />
            <path d="M24.9,15.49a1,1,0,0,1-1-1V10a1,1,0,0,1,2,0v4.49A1,1,0,0,1,24.9,15.49Z" />
            <path d="M34.35,47.83H22.21a1,1,0,0,1-1-1V43.24a1,1,0,0,1,1-1H36.45a1,1,0,0,1,0,2H23.21v1.59H34.35a1,1,0,1,1,0,2Z" />
            <path d="M31.19,50.15a1,1,0,0,1-1-1V46.83a1,1,0,1,1,2,0v2.32A1,1,0,0,1,31.19,50.15Z" />
            <path d="M24.9,52.32a1,1,0,0,1-1-1V46.83a1,1,0,0,1,2,0v4.49A1,1,0,0,1,24.9,52.32Z" />
            <path d="M35.67,39.56H23.1a1,1,0,0,1-1-1V22.76a1,1,0,0,1,1-1H39.27a1,1,0,0,1,1,1V37.55a1,1,0,0,1-2,0V23.76H24.1v13.8H35.67a1,1,0,0,1,0,2Z" />
            <g>
              <path d="M44.44,49.9a5.66,5.66,0,0,1-5.18-3.39.42.42,0,0,1,0-.1L39,45.64v0a4.9,4.9,0,0,1-.17-1.35,5.67,5.67,0,0,1,4.83-5.59A5.84,5.84,0,0,1,48,39.84,5.65,5.65,0,0,1,44.44,49.9Zm-3.33-4.15a3.65,3.65,0,1,0-.32-1.5,3.32,3.32,0,0,0,.09.8Z" />
              <path d="M41.47,55a1,1,0,0,1-.44-.1l-2.79-1.34a1,1,0,0,1-.55-1.11l.45-2.14a8.09,8.09,0,0,1-1-1.26l-2.19,0a1,1,0,0,1-.95-.77l-.69-3a1,1,0,0,1,.52-1.11l2-1a9.29,9.29,0,0,1,.36-1.58L34.8,39.79a1,1,0,0,1,0-1.23l1.93-2.43a1,1,0,0,1,1.2-.28l2,.9a8.89,8.89,0,0,1,1.46-.7l.53-2.12a1,1,0,0,1,1-.75H46a1,1,0,0,1,1,.75l.53,2.12a8.89,8.89,0,0,1,1.46.7l2-.9a1,1,0,0,1,1.2.28l1.93,2.42a1,1,0,0,1,0,1.24l-1.33,1.73a8.42,8.42,0,0,1,.36,1.58l2,1a1,1,0,0,1,.52,1.11l-.69,3a1,1,0,0,1-1,.78l-2.19,0a9,9,0,0,1-1,1.24l.45,2.16a1,1,0,0,1-.55,1.11L47.85,54.9a1,1,0,0,1-1.2-.26L45.25,53a8,8,0,0,1-1.62,0l-1.39,1.68A1,1,0,0,1,41.47,55Zm-1.66-2.91,1.39.67,1.25-1.51a1,1,0,0,1,.93-.34,6.35,6.35,0,0,0,2.13,0,1,1,0,0,1,.92.34l1.26,1.51,1.38-.67-.4-1.93a1,1,0,0,1,.31-.94,6.89,6.89,0,0,0,1.34-1.65,1,1,0,0,1,.85-.51l1.95,0,.34-1.5-1.75-.89a1,1,0,0,1-.54-.82,6.85,6.85,0,0,0-.47-2.08,1,1,0,0,1,.13-1L52,39.19l-1-1.2-1.77.81a1,1,0,0,1-1-.09,7,7,0,0,0-1.92-.93,1,1,0,0,1-.69-.71l-.47-1.89H43.67l-.47,1.89a1,1,0,0,1-.69.71,7,7,0,0,0-1.92.93,1,1,0,0,1-1,.09L37.83,38l-1,1.2,1.18,1.55a1,1,0,0,1,.13,1,6.85,6.85,0,0,0-.47,2.08,1,1,0,0,1-.54.82l-1.75.89.34,1.5,2,0a1,1,0,0,1,.85.51,6.84,6.84,0,0,0,1.33,1.66,1,1,0,0,1,.31.94Z" />
            </g>
          </g>
        </g>
      </svg>