<svg xmlns="http://www.w3.org/2000/svg" xmlns:xlink="http://www.w3.org/1999/xlink" version="1.1" id="b52d7e2d-d80f-4111-b6ed-d15502ee1edd" x="0px" y="0px" viewBox="0 0 711.2 669.7" style="enable-background:new 0 0 711.2 669.7;" xml:space="preserve">
<style type="text/css">
	.st0{fill:#E6E6E6;}
	.st1{opacity:0.1;enable-background:new    ;}
	.st2{fill:#001C55;}
	.st3{fill:#F2F2F2;}
	.st4{fill:#805038;}
	.st5{fill:#00072D;}
	.st6{fill:#0E6BA8;}
	.st7{fill:url(#SVGID_1_);}
</style>
<polygon class="st0" points="516.3,380 516.3,565 547.3,615.4 549.6,619.3 671.7,619.3 674.2,380 "/>
<polygon class="st1" points="516.3,380 516.3,565 547.3,615.4 549.2,380 "/>
<polygon class="st0" points="221.6,375.1 221.6,560.1 190.6,610.5 188.3,614.3 66.2,614.3 63.7,375.1 "/>
<polygon class="st1" points="221.6,375.1 221.6,560.1 190.6,610.5 188.7,375.1 "/>
<polygon class="st0" points="711.2,371.4 711.2,382.5 47.7,382.5 47.7,366.5 109.3,334.4 656.9,334.4 "/>
<polygon class="st1" points="711.2,371.4 711.2,382.5 47.7,382.5 47.7,366.5 "/>
<polygon class="st2" points="142.6,426.9 113,426.9 100.7,418.2 156.2,418.2 "/>
<polygon class="st2" points="142.6,462.6 113,462.6 100.7,454 156.2,454 "/>
<polygon class="st2" points="142.6,513.2 113,513.2 100.7,504.6 156.2,504.6 "/>
<polygon class="st2" points="142.6,563.8 113,563.8 100.7,555.1 156.2,555.1 "/>
<polygon class="st2" points="595.3,431.8 624.9,431.8 637.2,423.2 581.7,423.2 "/>
<polygon class="st2" points="595.3,467.6 624.9,467.6 637.2,458.9 581.7,458.9 "/>
<polygon class="st2" points="595.3,518.1 624.9,518.1 637.2,509.5 581.7,509.5 "/>
<polygon class="st2" points="595.3,568.7 624.9,568.7 637.2,560.1 581.7,560.1 "/>
<path class="st2" d="M615.4,120.5H366.2c-5.2,0-9.4,4.2-9.4,9.4c0,0,0,0,0,0v167.9c0,5.2,4.2,9.4,9.4,9.4c0,0,0,0,0,0h94.6  l-3.5,22.6c0,0-20.3,10.8-6,11.1s81.3,0,81.3,0s13,0-7.6-11.4l-3.3-22.3h93.7c5.2,0,9.4-4.2,9.4-9.4c0,0,0,0,0,0V129.9  C624.8,124.7,620.6,120.5,615.4,120.5C615.4,120.5,615.4,120.5,615.4,120.5z"/>
<rect x="365.8" y="130.4" class="st3" width="250" height="139.9"/>
<circle class="st3" cx="490.8" cy="126" r="1.6"/>
<circle class="st3" cx="490.8" cy="294.3" r="6"/>
<polygon class="st2" points="481.5,358 481.5,361.1 311.2,361.1 311.2,358.6 311.4,358 315.6,346.6 478,346.6 "/>
<path class="st2" d="M547,354.9c-0.3,1.3-1.5,2.7-4.1,4c-9.5,4.7-28.8-1.3-28.8-1.3s-14.9-2.5-14.9-9.2c0.4-0.3,0.9-0.5,1.3-0.8  c4-2.1,17.2-7.3,40.7,0.2c1.7,0.5,3.3,1.6,4.5,2.9C546.7,351.9,547.2,353.4,547,354.9z"/>
<path class="st1" d="M547,354.9c-11.6,4.5-22,4.8-32.6-2.6c-4-3-8.9-4.6-13.9-4.6c4-2.1,17.2-7.3,40.7,0.2c1.7,0.5,3.3,1.6,4.5,2.9  C546.7,351.9,547.2,353.4,547,354.9z"/>
<ellipse class="st3" cx="532.4" cy="351" rx="4.1" ry="1.3"/>
<polygon class="st1" points="481.5,358 481.5,361.1 311.2,361.1 311.2,358.6 311.4,358 "/>
<path class="st4" d="M81.1,72c0,0,3.4,28.1-9,30.4s11.3,40.5,11.3,40.5l56.3,6.8l-13.5-45c0,0-9-3.4-3.4-25.9  C128.4,56.3,81.1,72,81.1,72z"/>
<polygon class="st4" points="47,569.3 51.6,632.6 75.8,632.6 72.4,571.8 "/>
<path class="st4" d="M221.1,453.3l6.6,49.2c0,0,25.7-6.1,28.2-13.5c1.3-3.9-6.2-15.5-6.2-15.5l-3.1-25.1L221.1,453.3z"/>
<path class="st5" d="M29.8,327.6c0,0,1.2,66.8,8.1,88.6s5.8,23,4.6,26.5s-2.3,1.2-2.3,6.9s-2.3,96.7,0,104.8s-6.9,21.9,0,23  s39.1,0,40.3-6.9c1.2-6.9-9.2-9.2-4.6-13.8c4.6-4.6,11.5-99,11.5-99l16.1-65.6l29.9-34.5h63.3l19.6,76c0,0-8.1,21.9-2.3,21.9  s40.3,6.9,40.3-18.4s-11.5-100.1-13.8-102.5s1.2-10.4-2.3-13.8s-43.7-27.6-58.7-32.2s-36-10.1-36-10.1L29.8,327.6z"/>
<path class="st5" d="M254.2,481.8c0,0-17.3-5.8-25.3,11.5s-4.6,21.9-4.6,21.9s26.5,9.2,31.1,4.6c2-2,8.4-2.7,14.9-2.8  c10-0.2,12.6-14.3,3.2-17.6c-0.3-0.1-0.6-0.2-0.9-0.3C263.4,496.8,254.2,481.8,254.2,481.8z"/>
<path class="st4" d="M109.4,11.7c29.8,1.8,25.7,30.8,24.2,48.8C132,79,122.8,98.7,102.7,97c-24.4-2.1-27.9-25.7-26.2-45.7  C78.5,27,82.3,10.1,109.4,11.7z"/>
<path class="st6" d="M63.1,120.4c0,0,56.4,11.5,70.2-6.9s19.6,51.8,19.6,51.8l-3.7,76.2l0.2,37.8c0,0-54.1,43.7-71.4,47.2  s-43.7,5.8-43.7,5.8s8.1-127.8,8.1-130.1S63.1,120.4,63.1,120.4z"/>
<path class="st5" d="M80.3,98.8c0,0-12.5-7.2-16-0.3s-35.7,24.2-39.1,24.2s6.9,95.5,2.3,107.1S1,325.3,13.6,332.2s3.5-6.9,16.1,10.4  s74.8,17.3,78.3,10.4s-27.6-58.7-21.9-107.1s15-115.1,6.9-124.3S80.3,98.8,80.3,98.8z"/>
<path class="st5" d="M121.9,106.6l1.6-5.5c0,0,47.9,15.9,50.2,26.2s1.2,82.9-6.9,88.6s-19.6,15-11.5,28.8s17.3,28.8,24.2,29.9  s19.6,9.2,16.1,17.3s-44.9-6.9-44.9-6.9s-27.6-20.7-26.5-53S121.9,106.6,121.9,106.6z"/>
<path class="st4" d="M159.8,247.6c0,0-8.1,12.5-12.4,22.3c-3,6.9-11.9,25.3-11.9,25.3l-4.2,4.8c0,0-0.4,3.9-7.1,13.1  c-4.9,6.7-11.4,8-14.3,11.2c-3.2,3.5,3.7,7.1,9.2,10.3c9.7,5.6,19.2-1.5,26.5-9.1c8.2-8.6,5.9-15.3,7.4-20.5  c3.1-10.4,12.1-18.1,19.8-27.8c4.3-5.4,11.9-16.8,11.9-16.8L159.8,247.6z"/>
<path class="st5" d="M162.1,122.7l10.7,2.8c0,0,25,63.9,19.2,107.7S179.9,266,179.9,266s-6.2-19-27-14.4L162.1,122.7z"/>
<path class="st5" d="M48.6,624.3c-2.8,3.8-2.2,9.2-4.7,13.2c-2.1,3.5-6.1,5.3-8.8,8.3c-0.9,1-1.6,2.1-2.3,3.3  c-2.5,4.1-4.5,9.5-2,13.6c2,3.4,6.1,4.7,9.9,5.6c4.8,1.1,9.7,2,14.6,1.2s9.5-3.8,11.3-8.4c0.3-1.2,0.7-2.3,1.2-3.4  c2.6-5.2,10.8-5.2,13.5-10.3c1.9-3.6,0.2-7.9-1.6-11.6l-5.3-11.2c-1.7-3.7-8.8-1.6-12.5-2.5C57.1,620.8,52.1,619.5,48.6,624.3z"/>
<path class="st4" d="M9.2,271.3c0,0,15.5,24.6,21.1,32.2c5.7,7.9,19.5,21.5,19.5,21.5c2,5.9,4.5,11.5,11.5,15.4  c8.1,4.5,10.5,10.2,11.8,14.8c3,10.6,9.1,5.5,18.1-1.5c5.4-4.2,0.8-18.3-3.9-23.8c-4.3-5.1-17.5-13.8-17.5-13.8l-35.5-58.7  L9.2,271.3z"/>
<path class="st5" d="M34.4,125l-9.2-2.3c0,0-18.4,5.8-23,29.9S1,273.5,6.7,274.6s28.4-16.8,32.1-13s-7.9-15.8-4.4-26.1  S34.4,125,34.4,125z"/>
<g id="f3c2397c-d780-4cc6-97d8-1503d8277a2c">
	<rect id="ad41612f-86f7-46b2-a964-3a5da7bcf3cf" x="437.4" y="176.4" class="st6" width="29.8" height="7.2"/>
	<rect id="b9a0b375-cc2a-4c59-8850-661af54e4f62" x="559.7" y="176.4" class="st6" width="10.5" height="7.2"/>
	<rect id="e174c2ab-9bc5-41ec-b37c-b06fbf8a9878" x="580.7" y="176.4" class="st6" width="10.5" height="7.2"/>
	<rect id="ba2479ac-4c7d-43b4-a028-73b1e20e4002" x="477.6" y="176.4" class="st6" width="71.1" height="7.2"/>
	<rect id="ac60ef86-00f2-480b-8171-28b6fdfc1958" x="399.9" y="222.6" class="st6" width="29.8" height="7.2"/>
	<rect id="b3d8298d-cd65-487a-8b19-4cee946356e7" x="522.3" y="222.6" class="st6" width="10.5" height="7.2"/>
	<rect id="ed27f15f-f0c4-4569-8330-a6688f8e356c" x="543.2" y="222.6" class="st6" width="10.5" height="7.2"/>
	<rect id="f685c005-adaf-4d60-acda-005b037d82a6" x="440.2" y="222.6" class="st6" width="71.1" height="7.2"/>
	<rect id="eca7c7fc-83f8-48ca-a588-6606db47af3f" x="522.8" y="192.3" class="st6" width="29.8" height="7.2"/>
	<rect id="a71b5b2f-f8b9-481d-a301-5e3357e5fe42" x="563" y="192.3" class="st6" width="29.8" height="7.2"/>
	<rect id="abb3a25a-f854-41fc-8391-e6ad9fbe2417" x="399.9" y="192.3" class="st6" width="10.5" height="7.2"/>
	<rect id="add2b425-b775-4eb5-9c25-8c4c14f957c9" x="420.9" y="192.3" class="st6" width="10.5" height="7.2"/>
	<rect id="b7159612-3b84-4b0b-a885-612eaab04c06" x="441.8" y="192.3" class="st6" width="71.1" height="7.2"/>
	<rect id="edfc7301-4de5-47dc-80e2-1ae2da982d6d" x="461.1" y="207.8" class="st6" width="29.8" height="7.2"/>
	<rect id="e1009f91-6275-4375-80fa-0d778e331fdc" x="420.9" y="207.8" class="st6" width="29.8" height="7.2"/>
	<rect id="a060fb9f-1f1a-4862-9a69-16dd49199e18" x="399.9" y="207.8" class="st6" width="10.5" height="7.2"/>
	<rect id="b6754d5f-104f-449c-b9a9-cf9ac82bf5fe" x="582.3" y="207.8" class="st6" width="10.5" height="7.2"/>
	<rect id="e6ed1ccd-2cfd-450f-a339-07df3a1ee6bb" x="500.8" y="207.8" class="st6" width="71.1" height="7.2"/>
</g>
<path class="st1" d="M120.8,90.8c-0.2,1.3,0.2,2.3,0.1,3.4c-4.9,4.8-11.2,6.7-18.4,6c-9.9-1-16.8-6-21.3-13.1  c0.1-1.1,0.1-2.2,0.1-3.2c4.5,7,11.3,11.9,21.5,12.7C109.4,97.1,115.9,95.8,120.8,90.8z"/>
<path class="st4" d="M139.1,294.6c-3,0.8-6.2,1.2-8.8,2.5c-2.3,1-4.2,1.7-6.3,3.2c-2.4,1.7-3.5,2.7-4.3,5.5  c-0.4,1.7-1.7,4.8-2.1,6.5c-1.3,3.5,3.5,3.8,4.8,1.3c1.1-1.3,3-5.3,4.6-7.1c0.7-0.8,6.6-2.8,7.6-3.2c0.8-0.4,3.4-3.2,3-3.9  c1-0.3,0.4-1.8,1.5-1.7c0.8,0.1,1.5-0.8,1.5-1.5C140.6,295.2,139.9,294.3,139.1,294.6z"/>
<path class="st4" d="M77.5,46c0,0-5.9-4.6-7.1,2.7s0.2,20.3,5,16.5S77.3,45.6,77.5,46z"/>
<path class="st4" d="M135.9,28.7c0-0.1-0.1-0.2-0.1-0.4c0.1-0.5,0.2-0.9,0.4-1.4c0.2-0.6,0.3-1.2,0.1-1.7c-0.1-0.4-0.4-0.7-0.7-0.9  c0-0.4-0.1-0.8-0.3-1.2c-0.1-0.3-0.2-0.7-0.5-0.9c-0.2-0.2-0.3-0.3-0.3-0.6c-0.1-0.9,0.3-1.7,0.2-2.6c-0.1-1-0.6-2-1.6-2.3  c-0.3-0.1-0.6-0.1-0.9,0c-0.1-0.1-0.1-0.1-0.2-0.2c0,0,0,0,0,0c0,0,0,0,0-0.1c0.3-1,0.3-2.3-0.7-2.9c-0.2-0.1-0.5-0.1-0.7-0.3  c-0.1-0.1-0.2-0.2-0.3-0.3c-0.3-0.5-0.7-0.9-1.2-1.2c-0.2-0.1-0.3-0.1-0.5-0.2c-0.2-1-1.1-1.8-2.1-1.7c-0.4-0.2-0.8-0.2-1.2-0.1  c-0.1,0-0.2,0.1-0.4,0.2c0-0.2-0.1-0.3-0.2-0.5c-0.3-0.5-0.7-0.9-1.3-1.1c-0.5-0.5-1.3-0.7-2-0.6c-0.2-0.1-0.3-0.3-0.5-0.4  c-0.3-0.2-0.7-0.3-1.2-0.4c-0.9-0.9-2.4-1.2-3.4-0.5c-0.2-0.1-0.5-0.1-0.7-0.1c0-0.3-0.1-0.6-0.3-0.8c-0.4-0.5-1.1-0.7-1.7-0.6  c-0.4,0-0.9,0.1-1.3,0.2c-0.3,0.1-0.5,0.1-0.7,0.3c0,0-0.1,0.1-0.1,0.1c0,0,0,0,0,0c-0.4-0.2-0.8-0.4-1.2-0.4c-0.1,0-0.3,0-0.4,0  c-0.1-0.2-0.3-0.4-0.5-0.6c-0.4-0.2-0.8-0.3-1.2-0.1c-0.1,0-0.2,0.1-0.3,0.1c-0.1,0-0.1,0-0.2,0c-0.2,0-0.3,0-0.5,0.1  c-0.1,0-0.1,0-0.2,0.1c-1.5-0.7-3.2-1.3-4.3,0c-0.2,0.2-0.2,0.4-0.3,0.7c-0.2-0.1-0.4-0.2-0.7-0.2c-0.4,0-0.8,0-1.2,0  c-0.3-0.1-0.6-0.2-0.9-0.2c-0.4,0-0.9,0.2-1.2,0.5c-0.1,0-0.3-0.1-0.4-0.1c-0.1,0-0.3,0-0.4,0c-0.3-0.1-0.6-0.2-0.9-0.3  c-1-0.2-2.3,0.1-2.8,1.1C93.3,6,92.7,6,92.1,6.2c-0.5-0.2-1.1-0.3-1.6,0c-0.6,0.3-1,0.9-1.2,1.5C89.2,7.9,89.1,8,89,8.1  c-0.1-0.2-0.3-0.3-0.4-0.4c-0.5-0.4-1.3-0.4-1.9-0.2c-0.6,0.2-1.2,0.6-1.6,1.1c-0.2,0.3-0.3,0.6-0.3,0.9c0,0,0,0,0,0  c-0.6-0.2-1.3,0-1.8,0.4c-0.5,0.4-0.7,0.9-0.7,1.4c-0.3,0.2-0.5,0.5-0.7,0.8c-0.1,0-0.1,0-0.2,0c-0.8-0.1-1.5,0.4-1.9,1.1  c-0.2,0.4-0.4,0.8-0.5,1.2c-0.4,0.3-0.8,0.7-1,1.2c-0.3,0.5-0.4,1-0.5,1.5c-0.3,0.3-0.6,0.7-0.7,1.1c-0.7,0.6-1.2,1.4-0.7,2.2  c-0.2,0.4-0.2,0.8-0.2,1.3c-0.1,0.1-0.2,0.3-0.2,0.4c-0.2,0.6-0.1,1.2,0,1.9c-0.1,0.1-0.2,0.2-0.3,0.3c-0.4,0.5-0.5,1.1-0.4,1.8  c0,0.2,0.1,0.3,0.2,0.5c-0.5,2.3-0.9,4.8-1.1,7.6c-0.4,3.7-0.5,7.4-0.6,10.5c0.3,0,0.8,0.1,1.6,0.4c0.6,0.2,1.2,1.1,1.8,1.9  c-0.1,1.4-0.3,2.9-0.4,4.4c-1.6,20,1.8,43.6,26.2,45.7c20.1,1.7,29.3-18,30.8-36.6c0.3-3.1,0.6-6.5,0.8-10.1  c0.3-0.3,0.7-0.6,0.9-0.8c0.2-0.1,0.5-0.2,0.7-0.2C136.5,42.1,136.7,30.5,135.9,28.7z"/>
<path class="st4" d="M134,50c0.6-0.3,1.7-1.3,2.8-0.3c1.7,1.6,0.2,18.9-3.7,17.2C129.1,65.3,134,50,134,50z"/>
<g id="Слой_2">
	<linearGradient id="SVGID_1_" gradientUnits="userSpaceOnUse" x1="105.0833" y1="6.9517" x2="104.9106" y2="48.9888">
		<stop offset="0.3422" style="stop-color:#342620"/>
		<stop offset="0.8391" style="stop-color:#342620;stop-opacity:0.3"/>
	</linearGradient>
	<path class="st7" d="M135.9,28.7c0-0.1-0.1-0.2-0.1-0.4c0.1-0.5,0.2-0.9,0.4-1.4c0.2-0.6,0.3-1.2,0.1-1.7c-0.1-0.4-0.4-0.7-0.7-0.9   c0-0.4-0.1-0.8-0.3-1.2c-0.1-0.3-0.2-0.7-0.5-0.9c-0.2-0.2-0.3-0.3-0.3-0.6c-0.1-0.9,0.3-1.7,0.2-2.6c-0.1-1-0.6-2-1.6-2.3   c-0.3-0.1-0.6-0.1-0.9,0c-0.1-0.1-0.1-0.1-0.2-0.2c0,0,0,0,0,0c0,0,0,0,0-0.1c0.3-1,0.3-2.3-0.7-2.9c-0.2-0.1-0.5-0.1-0.7-0.3   c-0.1-0.1-0.2-0.2-0.3-0.3c-0.3-0.5-0.7-0.9-1.2-1.2c-0.2-0.1-0.3-0.1-0.5-0.2c-0.2-1-1.1-1.8-2.1-1.7c-0.4-0.2-0.8-0.2-1.2-0.1   c-0.1,0-0.2,0.1-0.4,0.2c0-0.2-0.1-0.3-0.2-0.5c-0.3-0.5-0.7-0.9-1.3-1.1c-0.5-0.5-1.3-0.7-2-0.6c-0.2-0.1-0.3-0.3-0.5-0.4   c-0.3-0.2-0.7-0.3-1.2-0.4c-0.9-0.9-2.4-1.2-3.4-0.5c-0.2-0.1-0.5-0.1-0.7-0.1c0-0.3-0.1-0.6-0.3-0.8c-0.4-0.5-1.1-0.7-1.7-0.6   c-0.4,0-0.9,0.1-1.3,0.2c-0.3,0.1-0.5,0.1-0.7,0.3c0,0-0.1,0.1-0.1,0.1c0,0,0,0,0,0c-0.4-0.2-0.8-0.4-1.2-0.4c-0.1,0-0.3,0-0.4,0   c-0.1-0.2-0.3-0.4-0.5-0.6c-0.4-0.2-0.8-0.3-1.2-0.1c-0.1,0-0.2,0.1-0.3,0.1c-0.1,0-0.1,0-0.2,0c-0.2,0-0.3,0-0.5,0.1   c-0.1,0-0.1,0-0.2,0.1c-1.5-0.7-3.2-1.3-4.3,0c-0.2,0.2-0.2,0.4-0.3,0.7c-0.2-0.1-0.4-0.2-0.7-0.2c-0.4,0-0.8,0-1.2,0   c-0.3-0.1-0.6-0.2-0.9-0.2c-0.4,0-0.9,0.2-1.2,0.5c-0.1,0-0.3-0.1-0.4-0.1c-0.1,0-0.3,0-0.4,0c-0.3-0.1-0.6-0.2-0.9-0.3   c-1-0.2-2.3,0.1-2.8,1.1C93.3,6,92.7,6,92.1,6.2c-0.5-0.2-1.1-0.3-1.6,0c-0.6,0.3-1,0.9-1.2,1.5C89.2,7.9,89.1,8,89,8.1   c-0.1-0.2-0.3-0.3-0.4-0.4c-0.5-0.4-1.3-0.4-1.9-0.2c-0.6,0.2-1.2,0.6-1.6,1.1c-0.2,0.3-0.3,0.6-0.3,0.9c0,0,0,0,0,0   c-0.6-0.2-1.3,0-1.8,0.4c-0.5,0.4-0.7,0.9-0.7,1.4c-0.3,0.2-0.5,0.5-0.7,0.8c-0.1,0-0.1,0-0.2,0c-0.8-0.1-1.5,0.4-1.9,1.1   c-0.2,0.4-0.4,0.8-0.5,1.2c-0.4,0.3-0.8,0.7-1,1.2c-0.3,0.5-0.4,1-0.5,1.5c-0.3,0.3-0.6,0.7-0.7,1.1c-0.7,0.6-1.2,1.4-0.7,2.2   c-0.2,0.4-0.2,0.8-0.2,1.3c-0.1,0.1-0.2,0.3-0.2,0.4c-0.2,0.6-0.1,1.2,0,1.9c-0.1,0.1-0.2,0.2-0.3,0.3c-0.4,0.5-0.5,1.1-0.4,1.8   c0,0.2,0.1,0.3,0.2,0.5c-0.5,2.3-0.9,4.8-1.1,7.6c-0.4,3.7-0.5,7.4-0.6,10.5c0.3,0,0.8,0.1,1.6,0.4c2.1,0.8,4.1,8.1,4,0.7   c-0.1-8.8,1.4-17.3,1.4-17.3c3.2-3.2,11-7.3,21-7.8c21-1,30,9.7,30.4,9.9c0.4,0.2,1.1,4.3,1.3,9.3c0.1,2.8,0.4,11.3,0.4,11.3   s1.2-1.2,1.7-1.5c0.2-0.1,0.5-0.2,0.7-0.2C136.5,42.1,136.7,30.5,135.9,28.7z"/>
</g>
</svg>