<svg xmlns="http://www.w3.org/2000/svg" xmlns:xlink="http://www.w3.org/1999/xlink" version="1.1" id="f0a8f4ba-cc2b-4400-9e08-d246a0bad060" x="0px" y="0px" viewBox="0 0 1098.8 632.4" style="enable-background:new 0 0 1098.8 632.4;" xml:space="preserve">
<style type="text/css">
	.st0{fill:#E6E6E6;}
	.st1{fill:#0E6BA8;}
	.st2{fill:#001C55;}
	.st3{fill:#FFFFFF;}
	.st4{opacity:0.3;fill:#0E6BA8;enable-background:new    ;}
	.st5{fill:#00072D;}
	.st6{fill:#875239;}
	.st7{fill:#0A2472;}
	.st8{opacity:0.1;enable-background:new    ;}
	.st9{fill:url(#SVGID_1_);}
	.st10{fill:#311E16;}
</style>
<ellipse class="st0" cx="549.4" cy="600.8" rx="549.4" ry="31.6"/>
<rect x="175" class="st0" width="825.3" height="26.3"/>
<circle class="st1" cx="197.1" cy="12.7" r="6.8"/>
<circle class="st1" cx="219.1" cy="12.7" r="6.8"/>
<circle class="st1" cx="241.2" cy="12.7" r="6.8"/>
<polygon class="st2" points="175.6,415.3 175,415.8 175,592.9 1000.3,592.9 1000.3,281.8 990.4,282.5 "/>
<rect x="249.5" y="175.6" class="st2" width="230.5" height="9.3"/>
<rect x="249.5" y="196.1" class="st2" width="230.5" height="9.3"/>
<rect x="249.5" y="216.5" class="st2" width="78.1" height="9.3"/>
<rect x="704.5" y="433.6" class="st3" width="230.5" height="9.3"/>
<rect x="704.5" y="454.1" class="st3" width="230.5" height="9.3"/>
<rect x="704.5" y="474.5" class="st3" width="78.1" height="9.3"/>
<circle class="st0" cx="561.3" cy="575.3" r="9.1"/>
<circle class="st0" cx="587.6" cy="576.2" r="9.1"/>
<circle class="st0" cx="613.9" cy="577.1" r="9.1"/>
<circle class="st2" cx="587.7" cy="576.2" r="7.3"/>
<rect x="325.5" y="282" class="st2" width="78.1" height="17.8"/>
<rect x="774.5" y="523" class="st3" width="78.1" height="17.8"/>
<circle class="st4" cx="365" cy="291" r="54"/>
<circle class="st4" cx="365" cy="291" r="36"/>
<circle class="st1" cx="365" cy="291" r="25"/>
<circle class="st4" cx="804.4" cy="157.2" r="54"/>
<circle class="st4" cx="804.4" cy="157.2" r="36"/>
<circle class="st1" cx="804.4" cy="157.2" r="25"/>
<circle class="st4" cx="814" cy="532" r="54"/>
<circle class="st4" cx="814" cy="532" r="36"/>
<circle class="st1" cx="814" cy="532" r="25"/>
<rect x="88.3" y="89.4" transform="matrix(3.874888e-02 -0.9992 0.9992 3.874888e-02 -1.8182 199.1264)" class="st1" width="28.6" height="22.2"/>
<path class="st5" d="M175.4,293.3c0,0,14.5,35.5,19.9,61.2s13.5,60.9,3,86s-40.4,98.6-40.7,106.5s2.6,16-3.8,15.8  s-40.9-11.1-42.3-16s11.8-17,11.8-17l32.6-102.1l-34-66.5l-24.5,99.2l-4.8,123.8c0,0-23.6-7.3-27-1c0,0-10.6-14.7-11.9-21.1  s5-128.6,5-128.6S37,294.3,54.5,295S140.4,253.8,175.4,293.3z"/>
<path class="st5" d="M154.1,556.4c0,0-4.8,11,17.6,37.3c1.5,1.7,12.9,13.5,4.9,13.1s-27.5-4.5-41.3-17.7s-29-35.4-27.3-36.9s7-7,7-7  L154.1,556.4z"/>
<path class="st5" d="M89.7,576.2c0,0,1,15.9,3.9,22.4s2.8,16.1-5.2,15.8S59.8,610,59.8,610s-1.2-9.6,0.4-11.1s8.7-18.7,5.7-23.6  S89.7,576.2,89.7,576.2z"/>
<path class="st6" d="M70.3,62.9c0,0-7.8,25.6-17,27.7c-8.8,2,13.1,20.2,13.1,20.2l31.1,5.8c0,0-3.8-16.5,2.3-30  C101.1,83.3,70.3,62.9,70.3,62.9z"/>
<path class="st1" d="M106.8,93.5c0,0-8.2,13.9-14.4,15.1C80.5,111,60.3,98.1,60.8,82.2c0.2-5-18.6,39-18.6,39l80.4,141.4l19.6-13.5  l-9.5-83l-7.8-44.8L106.8,93.5z"/>
<path class="st6" d="M256.1,171.5c-1.9-1.1-10.3-1.6-20.4,0.4c-3.5,0.7-7,2-8.8,2.3c0.6-1.8,3.9-2.9,5.2-4.1c1.5-1.5,2-2.3,2.2-3.4  c0.7-2.9-3.2-1.8-9,1c-2.3,1.1-4.9,2.5-6.4,3.4c-2.8,1.6-4.2,3.5-6.2,5.5c-0.9,0.9-1.7,1.7-2.3,2.4c-1.7,0.7-3.8,1.5-5.7,2.1  c-3.9,1.3-7.5,2.3-7.5,2.3s-0.3,20.9,0.8,20.9c1.1,0,15.5-7,16.6-7.8c1.1-0.8,10,3.2,18.2-1.6c8.6-5.1,13.3-3.3,17.9-6.5  C255.3,185.3,258,172.6,256.1,171.5z"/>
<path class="st7" d="M51.6,216.6c3.2,6.7,3.7,17.2,3.4,24.4c0,0.3,0,0.6-0.1,1c-0.8,14.7-6.2,31.7-8.1,44c-0.7,7.8,1,13.3,2.6,16.8  c3.5,1.9,14.1,9.5,48.4,22.6c48.7,16.2,57.2,2.2,57.3-1s-6.9-27.3-5.2-28.8s33.5,21.8,31.8,14.9c-1.4-5.5-5.3-17.6-5.3-17.6  s-10.7-33.2-10.4-41.2c0.3-7.9-22.1-45.4-22.1-45.4l-14.7-101.4c0,0-6.4-10.7-14.3-12.6s-14.4,2.6-14.4,2.6l13.2,29.1l13.9,51.4  l-2.3,19c0,0-16.2-34-26.8-47.1S65.1,103,65.1,103s-5.5-17.9-1.5-23.2c2.4-3.9-21.4,16.9-37.8,35.3c-9.9,17-12.9,20.4-14.6,34.5  C10,164,15.2,168.3,19.4,176C25.8,187.6,43.4,199.4,51.6,216.6z"/>
<path class="st8" d="M19.4,176c6.4,11.7,23.8,23,32,40.1c2.1-7.7,3.4-11.7,3.4-11.7s10-53.7-19.6-67.5c-4.9-0.5-9.8,0.9-13.8,3.9  C17.2,155,15.2,168.3,19.4,176z"/>
<path class="st7" d="M137.4,172.6l27.8,7.3l41.5,0.9l3.4,29.1l-65.7,5.8C144.4,215.8,128.5,175.5,137.4,172.6z"/>
<path class="st8" d="M55,241.9c-0.8,14.7-6.2,31.7-8.1,44c10.7,10.1,20.9,19.1,24.8,19.2c7.9,0.3,20.7-0.8,25.4,1s7.5-28.3,7.5-28.3  s-2.8-9.6-15.3-14.9C80.7,259.4,64.5,249.8,55,241.9z"/>
<path class="st7" d="M35.6,127.3c0,0-26.9-4.2-25.4,40.4s-2.8,73,8,81.4c10.8,8.4,45.9,46.3,53.8,46.6s20.7-0.8,25.4,1  s7.5-28.3,7.5-28.3s-2.8-9.6-15.3-14.9c-12.5-5.3-42-23.9-41.8-30.2s5-33.9,5-33.9S58.8,138.9,35.6,127.3z"/>
<path class="st0" d="M963.2,563.8c12.3,21,37.1,29.3,37.1,29.3s4.9-25.7-7.4-46.7s-37.1-29.3-37.1-29.3S950.9,542.8,963.2,563.8z"/>
<path class="st1" d="M970.9,556.4c21.3,11.8,30.2,36.4,30.2,36.4s-25.6,5.5-46.9-6.3S924,550.2,924,550.2S949.6,544.7,970.9,556.4z"/>
<path class="st6" d="M104,276.2c0,0,16.9,1.2,21.8,1.8c5,0.7,13.2,5.4,16.4,7.9s4.5,7.1,5.2,9.1c0.7,2-2,2.5-5.7-1.3  c-3.6-3.8-7.3-3.5-8.2-3.9c-0.9-0.4,4,4.4,8.9,8.7c4.7,4.1,11.3,5.6,12.2,8.6c0.4,1.4-7.8,8.9-17.8,8c-8.4-0.8-17.6-12.8-22.1-16.9  c-5.4-5-12.9-4.2-12.9-4.2s0.9-4.9,1.5-9.8C104,279.9,104.2,275.6,104,276.2z"/>
<path class="st8" d="M96.7,97.5c0,0-8.3-3.2-15.5-11.4c-1.8-2.2-3.7-4.2-3.7-4.2s1.3,6.6,9.2,13.1c7,5.8,9.7,5.9,9.7,5.9l0.1-1.9  L96.7,97.5z"/>
<path class="st6" d="M136.4,31.7c0,0-0.1-0.1-0.2-0.1c0.3-0.8,0.3-1.6-0.4-2.2c-0.1-0.1-0.3-0.2-0.5-0.2c-0.1-0.1-0.1-0.2-0.2-0.2  c-0.2-0.2-0.4-0.3-0.6-0.4c0-0.7-0.2-1.3-0.9-1.8c-0.1-0.1-0.3-0.1-0.4-0.2c0-0.6,0-1.2-0.1-1.7c-0.2-1.1,0.6-1.6-0.5-1.9  c0,0,0,0,0,0c0-0.2,0-0.3-0.1-0.5c-0.1-0.3-0.2-0.5-0.3-0.8c-0.1-0.1-0.1-0.1-0.2-0.2c-0.1-0.1-0.2-0.2-0.3-0.2c-0.1,0-0.1,0-0.2,0  c0-0.3,0-0.7,0-1c-0.1-0.6-0.4-1.3-0.9-1.7c-0.5-0.3-1.3-0.2-1.7,0.2c0,0,0,0-0.1-0.1c-0.1-0.5-0.4-0.8-0.8-1  c-0.1-0.1-0.2-0.2-0.3-0.4c-0.5-0.4-1-0.5-1.5-0.4c-0.1-0.1-0.3-0.2-0.4-0.3c0-0.6-0.2-1.2-0.8-1.6c0,0-0.1,0-0.1,0c0,0,0,0,0,0  c0.3-0.5,0.1-1-0.4-1.4c-0.5-0.4-1-0.5-1.5-0.4c-0.2-0.4-0.6-0.7-0.9-1c-0.4-0.3-1.1-0.5-1.6-0.4c-0.2-0.1-0.5-0.1-0.7,0  c0-0.3-0.1-0.6-0.3-0.9c-0.2-0.4-0.6-0.6-1-0.7c-0.2-0.4-0.6-0.8-1.1-1c-0.3-0.1-0.6-0.1-1-0.1c-0.1-0.1-0.3-0.2-0.5-0.3  c-0.3-0.1-0.5-0.2-0.8-0.2c-0.2-0.3-0.5-0.6-0.8-0.8c0,0,0-0.1-0.1-0.1c-0.6-0.7-1.6-0.8-2.4-0.4c-0.2-0.1-0.3-0.1-0.5-0.1  c-0.1,0-0.2,0-0.3,0c0-0.5-0.1-1-0.4-1.4c-0.5-0.8-1.5-1-2.4-0.9c-0.3,0-0.5,0.1-0.8,0.2c-0.8-0.5-1.9-0.4-2.7,0.2  c-0.3-0.3-0.7-0.6-1.2-0.7c-0.6-0.2-1.3-0.1-1.9,0.1c-0.5,0-0.9,0-1.4,0.2C100,5,99.7,5.2,99.4,5.4c-0.6-0.8-1.6-1.4-2.8-1.3  c-0.6,0-1.3,0.3-1.8,0.8c-0.6,0.1-1.2,0.3-1.7,0.6c-0.1-0.1-0.2-0.1-0.3-0.1c-0.5-1-1.3-1.7-2.6-1.7c-1,0.1-2.1,0.7-3,1.1  c-0.6,0.3-1.2,0.5-1.8,0.8c-0.5,0.1-1.1,0.4-1.5,0.7c-0.1,0-0.1,0.1-0.1,0.1c-0.9-0.3-1.8-0.2-2.6,0.3c-0.6,0.4-1.2,1-1.4,1.7  c-0.8-0.2-1.6-0.1-2.3,0.3c-1,0.6-1.6,1.9-1.1,2.9c-0.1,0.1-0.1,0.2-0.2,0.3c-1.1,0.3-2.2,1.2-2.7,2.2c0,0.1-0.1,0.2-0.1,0.2  c-0.2,0.1-0.5,0.3-0.7,0.5c-0.6,0.8-0.9,1.7-0.7,2.7c0,0.1,0.1,0.3,0.2,0.4c0,0,0,0-0.1,0c-0.5,0.1-0.9,0.4-1.2,0.8  c-0.1,0.1-0.1,0.2-0.1,0.2c-0.6,0.3-1.1,0.9-1.3,1.6c-0.3,0.7-0.1,1.6,0.2,2.2c0,0,0,0,0,0c0,0.1-0.1,0.3-0.1,0.4  c-0.2,0.1-0.4,0.1-0.6,0.3c-0.6,0.4-0.8,1.2-0.7,1.9c-0.5,0.3-0.8,0.7-1.1,1.2c-0.2,0.6-0.2,1.2-0.1,1.7c-0.4,0.4-0.7,1-0.8,1.6  c-0.1,0.6,0,1.4,0.2,2c-0.5,0.6-0.7,1.4-0.7,2.1c0,0.4,0,0.9,0.2,1.3c-0.1,0.4-0.2,0.9-0.2,1.4c-0.4,0.4-0.7,0.9-0.8,1.6  c-0.1,0.9,0.4,1.8,0.7,2.7c0,0,0,0.1,0,0.1c-0.4,0.8-0.5,1.7-0.3,2.5c-0.1,0.3,0,0.6,0.2,0.8c0,0.1,0.1,0.3,0.2,0.4  c-0.9,15.6,1.8,21.1,1.6,23.8c-0.3,3.1-1,5.9-1.5,6.7c-0.5,0.9,5.5,2.5,8.9,1.7c3.1,2.7,6.7,5.3,10.2,10.1c3.6,5,10,11.8,20.2,12.2  c9.6,0.4,16.7-8.5,21.6-18.5c6.4-13.4,9.4-27.3,9.5-36.9c0.1,0,0.1,0,0.2-0.1c0,0,0.2-1,0.2-3c0.3-1.4-0.6-3.8-0.2-5.3  c0.5-0.3,0.8-1,0.4-1.5C137,33.4,137.1,32.4,136.4,31.7z M129.4,20.1C129.4,20.1,129.4,20.1,129.4,20.1  C129.4,20.1,129.4,20.1,129.4,20.1C129.4,20.1,129.4,20.1,129.4,20.1z"/>
<g>
	<linearGradient id="SVGID_1_" gradientUnits="userSpaceOnUse" x1="101.3953" y1="10.1375" x2="100.0081" y2="83.3605">
		<stop offset="0.4951" style="stop-color:#32221B"/>
		<stop offset="0.8634" style="stop-color:#32221B;stop-opacity:0.3"/>
	</linearGradient>
	<path class="st9" d="M136.4,31.7c0,0-0.1-0.1-0.2-0.1c0.3-0.8,0.3-1.6-0.4-2.2c-0.1-0.1-0.3-0.2-0.5-0.2c-0.1-0.1-0.1-0.2-0.2-0.2   c-0.2-0.2-0.4-0.3-0.6-0.4c0-0.7-0.2-1.3-0.9-1.8c-0.1-0.1-0.3-0.1-0.4-0.2c0-0.6,0-1.2-0.1-1.7c-0.2-1.1,0.6-1.6-0.5-1.9   c0,0,0,0,0,0c0-0.2,0-0.3-0.1-0.5c-0.1-0.3-0.2-0.5-0.3-0.8c-0.1-0.1-0.1-0.1-0.2-0.2c-0.1-0.1-0.2-0.2-0.3-0.2c-0.1,0-0.1,0-0.2,0   c0-0.3,0-0.7,0-1c-0.1-0.6-0.4-1.3-0.9-1.7c-0.5-0.3-1.3-0.2-1.7,0.2c0,0,0,0-0.1-0.1c-0.1-0.5-0.4-0.8-0.8-1   c-0.1-0.1-0.2-0.2-0.3-0.4c-0.5-0.4-1-0.5-1.5-0.4c-0.1-0.1-0.3-0.2-0.4-0.3c0-0.6-0.2-1.2-0.8-1.6c0,0-0.1,0-0.1,0c0,0,0,0,0,0   c0.3-0.5,0.1-1-0.4-1.4c-0.5-0.4-1-0.5-1.5-0.4c-0.2-0.4-0.6-0.7-0.9-1c-0.4-0.3-1.1-0.5-1.6-0.4c-0.2-0.1-0.5-0.1-0.7,0   c0-0.3-0.1-0.6-0.3-0.9c-0.2-0.4-0.6-0.6-1-0.7c-0.2-0.4-0.6-0.8-1.1-1c-0.3-0.1-0.6-0.1-1-0.1c-0.1-0.1-0.3-0.2-0.5-0.3   c-0.3-0.1-0.5-0.2-0.8-0.2c-0.2-0.3-0.5-0.6-0.8-0.8c0,0,0-0.1-0.1-0.1c-0.6-0.7-1.6-0.8-2.4-0.4c-0.2-0.1-0.3-0.1-0.5-0.1   c-0.1,0-0.2,0-0.3,0c0-0.5-0.1-1-0.4-1.4c-0.5-0.8-1.5-1-2.4-0.9c-0.3,0-0.5,0.1-0.8,0.2c-0.8-0.5-1.9-0.4-2.7,0.2   c-0.3-0.3-0.7-0.6-1.2-0.7c-0.6-0.2-1.3-0.1-1.9,0.1c-0.5,0-0.9,0-1.4,0.2C100,5,99.7,5.2,99.4,5.4c-0.6-0.8-1.6-1.4-2.8-1.3   c-0.6,0-1.3,0.3-1.8,0.8c-0.6,0.1-1.2,0.3-1.7,0.6c-0.1-0.1-0.2-0.1-0.3-0.1c-0.5-1-1.3-1.7-2.6-1.7c-1,0.1-2.1,0.7-3,1.1   c-0.6,0.3-1.2,0.5-1.8,0.8c-0.5,0.1-1.1,0.4-1.5,0.7c-0.1,0-0.1,0.1-0.1,0.1c-0.9-0.3-1.8-0.2-2.6,0.3c-0.6,0.4-1.2,1-1.4,1.7   c-0.8-0.2-1.6-0.1-2.3,0.3c-1,0.6-1.6,1.9-1.1,2.9c-0.1,0.1-0.1,0.2-0.2,0.3c-1.1,0.3-2.2,1.2-2.7,2.2c0,0.1-0.1,0.2-0.1,0.2   c-0.2,0.1-0.5,0.3-0.7,0.5c-0.6,0.8-0.9,1.7-0.7,2.7c0,0.1,0.1,0.3,0.2,0.4c0,0,0,0-0.1,0c-0.5,0.1-0.9,0.4-1.2,0.8   c-0.1,0.1-0.1,0.2-0.1,0.2c-0.6,0.3-1.1,0.9-1.3,1.6c-0.3,0.7-0.1,1.6,0.2,2.2c0,0,0,0,0,0c0,0.1-0.1,0.3-0.1,0.4   c-0.2,0.1-0.4,0.1-0.6,0.3c-0.6,0.4-0.8,1.2-0.7,1.9c-0.5,0.3-0.8,0.7-1.1,1.2c-0.2,0.6-0.2,1.2-0.1,1.7c-0.4,0.4-0.7,1-0.8,1.6   c-0.1,0.6,0,1.4,0.2,2c-0.5,0.6-0.7,1.4-0.7,2.1c0,0.4,0,0.9,0.2,1.3c-0.1,0.4-0.2,0.9-0.2,1.4c-0.4,0.4-0.7,0.9-0.8,1.6   c-0.1,0.9,0.4,1.8,0.7,2.7c0,0,0,0.1,0,0.1c-0.4,0.8-0.5,1.7-0.3,2.5c-0.1,0.3,0,0.6,0.2,0.8c0,0.1,0.1,0.3,0.2,0.4   c-0.9,15.6,1.8,21.1,1.6,23.8c-0.3,3.1-1,5.9-1.5,6.7c-0.5,1,8,3.2,10.5,0.9c0,0,3.7-5.9,4.3-7.6c0.6-1.7-0.8-11.2,5.3-12.8   c5.4-1.5,7.8,3.2,8,6.7c0.2,3.4-0.5,4.7,1.8,5.6c2.3,1,5.9,2.6,7.6,1.8c1.7-0.8,3.4-3.1,5.6-9.9c2.3-7.1,5.4-13.7,6.8-15.2   c1.3-1.5,5.1-1,6-0.9c0.9,0.1,10.9,2,14.8-0.1c0,0,0.2-1,0.2-3c0.3-1.4-0.6-3.8-0.2-5.3c0.5-0.3,0.8-1,0.4-1.5   C137,33.4,137.1,32.4,136.4,31.7z M129.4,20.1C129.4,20.1,129.4,20.1,129.4,20.1C129.4,20.1,129.4,20.1,129.4,20.1   C129.4,20.1,129.4,20.1,129.4,20.1z"/>
	<path class="st10" d="M67.4,44.1C67.4,44.1,67.4,44.1,67.4,44.1C67.4,44.1,67.4,44.1,67.4,44.1C67.4,44.1,67.4,44.1,67.4,44.1z"/>
</g>
</svg>