<svg width="193" height="54" viewBox="0 0 193 54" fill="none" xmlns="http://www.w3.org/2000/svg">
<path d="M16.3819 36.9775L16.2115 37.3986V37.4132L16.0898 37.5081L16.1677 37.3718L16.3819 36.9775Z" fill="url(#paint0_linear_1495_187208)"/>
<path d="M51.6965 18.7142C52.0061 19.5335 52.2542 20.3747 52.4388 21.2308C52.6289 22.0851 52.7752 22.9487 52.8769 23.818C53.0811 25.5691 53.1259 27.3352 53.0108 29.0945C52.8933 30.8757 52.6106 32.6421 52.1662 34.371C51.7137 36.1222 51.0603 37.8152 50.2192 39.4164C49.7961 40.2193 49.3255 40.9962 48.81 41.7431C48.2916 42.4878 47.7391 43.2034 47.1525 43.897C46.566 44.5907 45.9356 45.2381 45.2955 45.8684C44.6554 46.4988 43.9837 47.0854 43.2852 47.6597C40.5337 49.8926 37.4161 51.6318 34.0707 52.8L33.8663 52.8608H33.8054L33.6594 52.8997L33.3406 52.9801C33.124 53.0361 32.9049 53.0896 32.6859 53.1383C32.2478 53.2389 31.8081 53.3273 31.3667 53.4036C30.4833 53.5593 29.5949 53.6688 28.709 53.737C27.8231 53.8051 26.9299 53.8246 26.044 53.81C25.1581 53.7954 24.2746 53.7346 23.3984 53.6421C21.6506 53.4511 19.9231 53.1058 18.2363 52.6101C16.5649 52.1143 14.937 51.4827 13.3686 50.7215L13.1958 50.6387L13.337 50.3053L13.5171 50.3686C15.1267 50.9327 16.7767 51.3744 18.4529 51.6901C20.1136 51.9901 21.7962 52.1529 23.4836 52.1769C24.3233 52.1769 25.1605 52.1769 25.9953 52.1039C26.8301 52.0309 27.6576 51.9432 28.4778 51.807C29.298 51.6707 30.1085 51.5052 30.9116 51.2959C31.3132 51.1936 31.7075 51.0792 32.0993 50.9551L32.6859 50.7604L32.9852 50.6558L33.1483 50.5998L33.2408 50.5706L33.4014 50.5268L33.197 50.5876C33.5645 50.4124 33.9393 50.2469 34.3044 50.0644C34.6694 49.8818 35.0345 49.7017 35.3874 49.5021L35.9253 49.2125L36.451 48.9083C36.8039 48.7087 37.1422 48.4872 37.4854 48.273C37.6582 48.1684 37.8213 48.0516 37.9892 47.9396C38.1571 47.8276 38.3251 47.7157 38.4881 47.5989C38.8118 47.3555 39.1428 47.1292 39.4616 46.8687C40.0993 46.382 40.7029 45.8538 41.287 45.3111L41.7154 44.8949C41.859 44.7562 41.9928 44.6077 42.1316 44.4666C42.4139 44.1842 42.6719 43.8824 42.9323 43.5855C43.4434 42.9771 43.9237 42.3475 44.3731 41.6969C45.251 40.3901 46.0296 39.0192 46.7023 37.5958C48.0892 34.7199 49.1551 31.7 49.8809 28.5907C50.2557 27.0111 50.5575 25.3951 50.7935 23.7522C51.0296 22.1094 51.2146 20.4349 51.3363 18.7361L51.3484 18.539L51.6429 18.4879L51.6965 18.7142Z" fill="url(#paint1_linear_1495_187208)"/>
<path d="M2.87435 38.9782C2.48478 38.2828 2.14325 37.5615 1.85214 36.8194C1.55521 36.0893 1.29723 35.3275 1.07089 34.5632C0.84454 33.799 0.662003 33.0226 0.508672 32.2414C0.425922 31.8495 0.367509 31.4552 0.301796 31.061C0.236082 30.6667 0.187406 30.27 0.153332 29.8733C0.0608468 29.0774 0.0243383 28.2791 0 27.4784V26.5779V26.2761L0.0194711 25.6749C0.0194711 25.4753 0.0438115 25.2758 0.0559807 25.0762C0.165271 23.4733 0.409518 21.8824 0.786128 20.3205C0.883481 19.9286 0.993003 19.5417 1.09766 19.1547C1.20231 18.7677 1.34104 18.3856 1.45543 18.0011C1.56982 17.6165 1.72802 17.2393 1.86431 16.8572C1.88135 16.8085 1.89352 16.7671 1.91786 16.7087L1.986 16.5578C2.02981 16.4629 2.07119 16.368 2.11743 16.2779C2.20505 16.0929 2.29753 15.9104 2.38759 15.7303C2.7624 15.0099 3.16803 14.3098 3.6045 13.6299C4.03772 12.9484 4.49528 12.284 4.98448 11.6415C5.95916 10.3501 7.03506 9.13825 8.20199 8.01752C10.5487 5.74789 13.2647 3.8944 16.2336 2.53654C17.725 1.85726 19.2722 1.30762 20.8579 0.893707C21.6489 0.681964 22.452 0.531075 23.2601 0.385046L24.4916 0.217096L24.6449 0.197636L24.7228 0.185455H24.8323H25.156C25.3678 0.185455 25.5746 0.185455 25.784 0.185455C26.609 0.185455 27.4292 0.241425 28.2421 0.329043C29.055 0.41666 29.863 0.545658 30.6759 0.698989C32.2788 1.01278 33.8519 1.46306 35.3781 2.0449C36.1374 2.34426 36.8895 2.65823 37.6172 3.01843L38.1624 3.29102L38.6978 3.5855C39.0556 3.78021 39.4012 3.99683 39.7468 4.20858L40.0072 4.36922L40.2506 4.53957L40.7544 4.88031C41.0903 5.10909 41.4115 5.36708 41.7279 5.61046C42.0443 5.85385 42.3534 6.12398 42.665 6.38197C42.9765 6.63995 43.2661 6.92227 43.5582 7.20216C44.7111 8.31919 45.7333 9.56357 46.6053 10.9113L46.6613 10.999L46.5153 11.1133L46.4447 11.0379C45.3691 9.89965 44.2 8.85351 42.9497 7.91042L42.0078 7.22896C41.6841 7.01965 41.3629 6.80546 41.0343 6.59858C40.8688 6.50123 40.7009 6.40632 40.5354 6.3041C40.3699 6.20188 40.2092 6.1021 40.0486 6.01205L39.5424 5.73703L39.299 5.59828L39.0386 5.47172C37.6677 4.78515 36.2443 4.20895 34.7818 3.74858C34.0517 3.52954 33.3215 3.31293 32.5695 3.14743C31.8174 2.98193 31.0751 2.82372 30.3206 2.70933C29.5661 2.59494 28.8092 2.49272 28.0498 2.42944C27.2905 2.36616 26.5287 2.31748 25.7767 2.31262H25.2193H24.9491H24.9126H24.8421L24.7033 2.32967L23.5838 2.46351C22.8342 2.58277 22.0772 2.6923 21.3373 2.86754C18.3389 3.49371 15.4791 4.65893 12.8968 6.30653C11.604 7.13883 10.3829 8.07749 9.24611 9.11274C8.10482 10.15 7.0469 11.2755 6.08213 12.4787C5.59537 13.0774 5.13294 13.6964 4.69485 14.3357C4.25676 14.975 3.85113 15.6289 3.47794 16.2974C3.38545 16.4653 3.29297 16.6333 3.20535 16.8012C3.15911 16.8864 3.11773 16.9691 3.07636 17.0446L3.01795 17.1614C3.00334 17.193 2.98387 17.2466 2.96683 17.288C2.82567 17.6457 2.67721 18.0011 2.54091 18.3613C2.40462 18.7215 2.28049 19.0914 2.15637 19.4589C2.03224 19.8264 1.91299 20.2012 1.81564 20.5736C1.38653 22.0681 1.08527 23.5964 0.915121 25.1419C0.89565 25.3342 0.871312 25.5289 0.854275 25.7212L0.812901 26.3053L0.790993 26.5949V26.8869L0.76909 27.4711C0.76909 28.2499 0.769091 29.0312 0.820202 29.81C0.839672 30.2018 0.885912 30.5888 0.919986 30.9782C0.954059 31.3676 1.01004 31.7546 1.07332 32.1416C1.19258 32.9156 1.34347 33.6846 1.53088 34.444C1.71828 35.2033 1.93489 35.9603 2.19044 36.7002C2.44305 37.4422 2.7447 38.1667 3.09339 38.8687L3.13964 38.9612L2.96683 39.061L2.87435 38.9782Z" fill="url(#paint2_linear_1495_187208)"/>
<path d="M39.9536 42.3636L39.2235 42.5291C38.9801 42.5826 38.7367 42.624 38.4933 42.6727C38.3716 42.6946 38.2499 42.7213 38.1258 42.7408L37.7559 42.7968C37.5125 42.8357 37.2691 42.8796 37.0135 42.9063C35.0292 43.161 33.0292 43.2749 31.0288 43.2471C30.026 43.2471 29.0282 43.2008 28.0279 43.1424C27.0276 43.084 26.0321 43.0012 25.0367 42.899C24.0413 42.7968 23.0483 42.6556 22.0553 42.5169C21.0623 42.3782 20.0814 42.2029 19.086 41.9936V41.9596C12.2469 44.8047 4.41975 45.9608 4.11065 45.9608C17.779 51.5829 24.0388 50.6873 24.5548 50.5607C34.1879 50.5607 39.7638 44.7925 42.0224 41.7624C41.3409 41.9912 40.6424 42.1908 39.9536 42.3636ZM46.9241 28.3277C46.3575 28.7023 45.7691 29.0429 45.162 29.3475C44.8602 29.5057 44.5511 29.6444 44.2444 29.7904C43.9378 29.9365 43.6214 30.0679 43.305 30.1945C42.6771 30.4524 42.037 30.6812 41.392 30.9076C40.1045 31.3456 38.7902 31.7107 37.4662 32.0295C36.8042 32.1918 36.1382 32.3362 35.4681 32.4628C34.8036 32.5918 34.1441 32.7062 33.4626 32.8084C28.556 36.8631 24.0096 39.3456 23.7857 39.5696C22.7013 40.2456 21.5736 40.8497 20.41 41.3779C20.9965 41.5069 21.5904 41.6213 22.1818 41.7381C23.1553 41.923 24.1329 42.0853 25.1146 42.2248C26.0962 42.3644 27.0803 42.4844 28.0668 42.585C29.0549 42.68 30.0431 42.7578 31.0336 42.8017C33.0167 42.9003 35.0042 42.8613 36.9819 42.6848C37.2253 42.6678 37.4687 42.6313 37.7242 42.6021L38.0917 42.5607C38.2159 42.5461 38.3351 42.5242 38.4617 42.5072C38.7051 42.4682 38.9484 42.4342 39.1918 42.3928L39.922 42.254C40.6375 42.1056 41.3458 41.9304 42.0443 41.7162C42.4693 41.1564 42.8548 40.5676 43.1979 39.9541C45.6098 36.2766 47.1577 31.7983 48.1483 27.4101C47.7585 27.7396 47.3497 28.046 46.9241 28.3277ZM49.8447 9.16619C48.7273 10.9616 47.4023 12.6191 45.897 14.1044C45.7412 13.8611 45.5806 13.642 45.4102 13.4132C45.3105 13.2696 45.2058 13.1333 45.0987 12.997C44.9916 12.8607 44.887 12.7196 44.775 12.5857L44.444 12.1817L44.0984 11.7899C43.8696 11.5246 43.6117 11.2763 43.3829 11.0208C43.1541 10.7652 42.8815 10.534 42.6235 10.2906C42.1092 9.80386 41.5705 9.34792 41.0075 8.92281C38.7274 7.16031 36.138 5.83958 33.3725 5.02869C33.0245 4.92647 32.6765 4.81693 32.3187 4.74149C31.9609 4.66604 31.608 4.57355 31.2527 4.4981C30.5347 4.37641 29.8119 4.24014 29.0841 4.18172C28.354 4.0868 27.6238 4.07462 26.8937 4.04054C26.5262 4.04054 26.1636 4.04054 25.796 4.04054H25.2484C25.0659 4.04054 24.8834 4.06489 24.7008 4.07706C21.8053 4.29028 18.9541 4.90969 16.2311 5.91704H16.2141L16.124 5.95112L16.0729 5.97302L15.9244 6.03873C15.8539 6.07037 15.7808 6.10445 15.7224 6.13609L15.5521 6.22371L15.3963 6.30888C15.1967 6.42327 15.0045 6.53523 14.8219 6.64719C14.452 6.8711 14.0918 7.09987 13.751 7.33595C13.0615 7.80974 12.3978 8.30624 11.7602 8.82545C10.4776 9.86544 9.27893 11.0047 8.17515 12.2328C7.06484 13.4693 6.06631 14.8018 5.19127 16.2145C4.31212 17.6378 3.58294 19.1483 3.01543 20.722C2.45182 22.2948 2.07603 23.9287 1.89587 25.5896C1.72312 27.2339 1.75173 28.893 1.98106 30.5303C2.39046 33.3908 3.37129 36.1396 4.86514 38.6131C3.05924 40.7378 2.12465 42.3271 2.06381 42.5072C5.25693 41.8694 8.41267 41.0569 11.5168 40.0733C15.5045 38.8454 19.3962 37.325 23.1602 35.5245C23.1602 35.4734 23.1602 35.4296 23.1456 35.3834C23.131 35.3371 23.1456 35.2617 23.1334 35.2008C23.1334 35.0816 23.1213 34.9574 23.1188 34.8455C23.1164 34.7335 23.1188 34.6021 23.1188 34.4926C23.1188 34.383 23.1188 34.2492 23.1188 34.1421L23.1334 33.7916C23.1334 33.6748 23.1529 33.5483 23.1626 33.4436C23.1724 33.339 23.1797 33.2002 23.1943 33.098L23.2381 32.7524C23.3636 31.8391 23.5589 30.9368 23.8222 30.0533L24.0388 29.401C24.0753 29.2939 24.107 29.182 24.1483 29.0773L24.2725 28.7561C24.3577 28.5443 24.4355 28.3301 24.5159 28.1208L24.7957 27.4953L24.9345 27.1838L25.0927 26.882L25.4042 26.276C25.4553 26.1738 25.5137 26.0764 25.5721 25.9791L25.7449 25.6846L25.762 25.6529C20.079 27.3566 14.4325 30.5011 14.323 30.6179C10.8601 32.6734 7.7498 35.2718 5.11096 38.3137C4.85054 37.1722 4.62419 36.0356 4.4806 34.9063C4.45139 34.7189 4.44166 34.5291 4.41732 34.3441C4.39298 34.1591 4.36864 33.9693 4.35891 33.7819L4.3151 33.2197C4.29563 33.0323 4.29806 32.8449 4.28589 32.6599C4.25912 32.2875 4.26155 31.9152 4.25425 31.5452C4.25425 31.3602 4.25425 31.1753 4.26642 30.9903V30.7153L4.27859 30.4403C4.40985 27.5573 5.12612 24.7311 6.38385 22.1336C7.65315 19.5722 9.32536 17.2311 11.3367 15.1997C12.3426 14.1693 13.4141 13.2051 14.5445 12.3131C15.1091 11.8677 15.6859 11.4369 16.2725 11.0402C16.5621 10.8382 16.859 10.646 17.1487 10.4658C17.2947 10.3758 17.4359 10.293 17.5697 10.2225L17.6671 10.1689L17.7547 10.1227L17.8058 10.0959C20.1599 9.1907 22.6095 8.55705 25.1073 8.20725C25.263 8.18535 25.4188 8.15617 25.5746 8.14156L26.0419 8.10261C26.3534 8.07584 26.6649 8.03691 26.9789 8.01744C27.6019 8.00283 28.2299 7.95171 28.8554 7.97605H29.3251C29.403 7.97605 29.4833 7.97605 29.5685 7.97605L29.8119 7.99067L30.7513 8.05151C31.3744 8.11966 32.0023 8.17807 32.6229 8.2949L33.0927 8.37033C33.2484 8.39223 33.4018 8.43605 33.5575 8.46525L34.0224 8.56505C34.1781 8.59669 34.3339 8.62831 34.4872 8.67212L35.4121 8.9155L36.3296 9.19783C36.9357 9.40714 37.5466 9.62132 38.1428 9.86957C38.4471 9.98153 38.7367 10.1276 39.0361 10.2565C39.3354 10.3855 39.625 10.534 39.922 10.6727C40.5085 10.9623 41.0829 11.2812 41.6573 11.6073C42.2317 11.9335 42.7915 12.2961 43.3439 12.6685C43.8964 13.0408 44.4416 13.44 44.9746 13.8537C45.1936 14.0265 45.4151 14.1994 45.6293 14.3795C44.7313 15.2831 43.7538 16.1042 42.7087 16.8327C42.2876 17.2003 41.852 17.5629 41.4066 17.9012L41.3287 18.0886L41.2873 18.1908L41.2533 18.2955C41.1657 18.5754 41.061 18.8479 40.9953 19.1327C40.9588 19.2739 40.9198 19.415 40.8858 19.5562L40.803 19.9821C40.7738 20.1237 40.7519 20.2666 40.7373 20.4105L40.7081 20.6271C40.6971 20.698 40.6898 20.7695 40.6862 20.8412C40.6357 21.408 40.6357 21.9782 40.6862 22.5449C40.7081 22.8273 40.7519 23.1072 40.8006 23.3822L40.8663 23.6986C43.2563 21.5665 44.8115 19.9626 44.8821 19.8921C44.7677 20.0746 41.0926 25.9766 35.5581 31.0025C35.2734 31.2629 34.9837 31.5184 34.699 31.7691L35.3585 31.6815C36.023 31.589 36.6874 31.4844 37.347 31.3627C38.671 31.1193 39.9852 30.8346 41.28 30.4719C41.9274 30.2918 42.57 30.0947 43.2052 29.8732C43.524 29.7661 43.838 29.6444 44.1544 29.5252C44.4708 29.4059 44.7775 29.2817 45.0841 29.1382C45.7024 28.8698 46.3038 28.5642 46.8851 28.2231C47.3355 27.9617 47.7696 27.6732 48.1848 27.359C50.2609 18.0472 49.8471 9.16619 49.8471 9.16619H49.8447ZM17.7352 10.1227L17.6257 10.1567L17.7815 10.1056L17.7352 10.1227ZM27.2271 25.2611C26.7671 25.3755 26.3023 25.5045 25.8399 25.6407L25.8033 25.7186L25.6549 26.0229C25.6062 26.1251 25.5575 26.2273 25.5162 26.332L25.2557 26.9575L25.1243 27.2714L25.0124 27.5878L24.786 28.2255C24.7154 28.4396 24.657 28.6563 24.5913 28.8704L24.4964 29.1942C24.4623 29.3012 24.4428 29.4108 24.4136 29.5203L24.2579 30.1725C24.0751 31.0452 23.958 31.9304 23.9074 32.8205L23.8928 33.154C23.8928 33.2635 23.8928 33.3755 23.8928 33.485C23.8928 33.5945 23.8928 33.7065 23.8928 33.816L23.905 34.1446C23.905 34.2541 23.9171 34.3636 23.9244 34.4731C23.9317 34.5826 23.9415 34.6897 23.9561 34.7992C23.9707 34.9088 23.978 35.0134 23.995 35.1181C27.5581 33.3755 29.8362 31.9541 30.0358 31.7643C33.7255 29.6371 37.3543 26.7457 40.0996 24.346C40.0985 24.3281 40.0985 24.3103 40.0996 24.2924C40.0996 24.2511 40.085 24.2121 40.0777 24.1732C40.0656 24.0929 40.0534 24.015 40.0437 23.9298C40.0242 23.7765 40.0145 23.6207 40.0023 23.4674C39.9865 23.1609 39.9865 22.8538 40.0023 22.5474C40.0023 22.3965 40.0145 22.2431 40.0315 22.0922C40.0485 21.9413 40.0534 21.7904 40.0777 21.6396C40.1021 21.4887 40.1215 21.3402 40.1459 21.1917L40.2359 20.7488C40.2481 20.6757 40.2676 20.6027 40.287 20.5297L40.3455 20.3131C40.3794 20.1667 40.4208 20.0221 40.4696 19.8799L40.6107 19.454C40.6619 19.3153 40.7203 19.1789 40.7762 19.0402C40.8785 18.7603 41.0196 18.4975 41.1437 18.2298L41.1924 18.13L41.246 18.0326L41.28 17.9718C35.2223 22.635 27.2369 25.2611 27.2369 25.2611H27.2271Z" fill="url(#paint3_linear_1495_187208)"/>
<path d="M40.2144 23.0123C39.9126 23.1292 39.6084 23.2411 39.3018 23.3482C39.3139 23.3312 39.3285 23.3141 39.3383 23.2971C39.6328 23.2094 39.9248 23.1121 40.2144 23.0123Z" fill="url(#paint4_linear_1495_187208)"/>
<path d="M65.9591 22.6206V27.8606H73.9517V32.1052H65.9591V39.5917H60.9648V17.6288H75.9499V22.6206H65.9591Z" fill="#414042"/>
<path d="M150.501 17.6288V39.5917H145.504V24.8281L137.884 34.0571L131.519 25.2832V39.5917H126.525V17.6288H132.132L138.139 25.9063L144.976 17.6288H150.501Z" fill="#414042"/>
<path d="M158.24 17.6263H153.246V39.5916H158.24V17.6263Z" fill="#414042"/>
<path d="M165.733 17.6288V35.0988H175.474V39.5917H160.739V17.6288H165.733Z" fill="#414042"/>
<path d="M193 17.6945L184.467 29.776V39.5917H179.47V29.7931L170.708 17.7189L170.835 17.6288H176.81L181.941 24.6966L186.935 17.6288H192.905L193 17.6945Z" fill="#414042"/>
<path d="M119.109 31.964C121.107 31.2947 123.774 29.3039 123.774 24.9911C123.774 20.2792 120.124 18.1764 117.877 17.6264H110.138C110.14 17.6074 110.144 17.5887 110.15 17.5704L110.23 17.2442C110.259 17.1323 110.296 17.0276 110.33 16.9205C110.388 16.7015 110.481 16.4946 110.559 16.2829L110.593 16.2026L110.627 16.1247L110.7 15.9713L110.841 15.6598L110.659 15.9494L110.569 16.0955L110.522 16.1685L110.481 16.2439C110.376 16.4459 110.257 16.6431 110.167 16.8573C110.121 16.9619 110.07 17.0666 110.026 17.1737L109.899 17.4949C109.882 17.5387 109.868 17.5825 109.853 17.6264H105.545V23.7912C102.816 25.5677 99.9572 27.1362 96.9927 28.4837L96.5887 27.7146V27.6683C96.5887 27.5831 96.5887 27.4979 96.5887 27.4103C96.5887 27.3227 96.5887 27.2424 96.6033 27.1669L96.6276 26.909C96.6976 26.2217 96.8196 25.5407 96.9927 24.8719L97.1363 24.3851C97.1606 24.3023 97.1825 24.2196 97.2117 24.1417L97.2993 23.8983C97.3553 23.7377 97.4089 23.5698 97.4697 23.4116L97.6693 22.9248L97.7691 22.6814L97.881 22.438L98.1025 21.9659C98.139 21.8855 98.1828 21.8077 98.2218 21.7225L98.3459 21.4937L98.5893 21.0288L98.324 21.4548L98.1828 21.6738C98.1317 21.7493 98.0855 21.8198 98.0417 21.8977L97.7764 22.3553L97.6449 22.5841L97.5257 22.8274L97.2823 23.2972C97.2093 23.4578 97.1411 23.6209 97.0657 23.7839L96.9586 24.0273C96.9221 24.1076 96.8929 24.1904 96.8612 24.2707L96.6714 24.7574C96.4372 25.4323 96.2541 26.1238 96.1238 26.8262L91.2902 17.6239H88.2382L86.8193 17.6434L75.9839 39.5892H81.5525L83.188 36.2743C83.4144 36.2938 83.6577 36.306 83.9328 36.306C85.1764 36.306 87.0213 36.0626 89.9029 35.3811C91.6383 34.9698 93.2641 34.5147 94.2838 34.2129L94.3422 34.1958L94.3617 34.2299L97.1776 39.5843H102.819L100.475 35.1231C100.904 35.1621 101.327 35.1913 101.753 35.2132C103.013 35.2825 104.276 35.2825 105.535 35.2132V39.5746H110.53V32.2123H113.737C114.845 35.3762 117.836 39.5746 123.765 39.5746V34.5974C122.823 34.6226 121.892 34.3908 121.071 33.9269C120.251 33.463 119.573 32.7844 119.109 31.964ZM89.1728 31.4602C87.6249 31.8302 86.2376 32.1003 85.1984 32.2366L89.1412 24.2512L92.3635 30.3869L92.4731 30.5938C91.3243 30.9199 90.2047 31.212 89.1606 31.4602H89.1728ZM105.557 35.0258C104.304 35.0437 103.05 34.9933 101.802 34.8749C101.289 34.8278 100.78 34.771 100.273 34.7045L98.3264 30.9929C100.307 29.8491 102.203 28.564 104 27.1475C104.486 27.0964 104.973 27.0331 105.46 26.9601L105.552 26.9455L105.557 35.0258ZM117.52 27.2375H110.539V25.8356C110.895 25.7286 111.248 25.6117 111.598 25.4876C111.841 25.4 112.085 25.3026 112.328 25.2077C112.572 25.1128 112.815 25.0082 113.058 24.8986C113.539 24.6835 114.006 24.4397 114.458 24.1685C114.911 23.9026 115.341 23.5989 115.743 23.2607C115.324 23.5729 114.88 23.8512 114.416 24.093C113.954 24.3353 113.478 24.5498 112.99 24.7356C112.747 24.8305 112.503 24.9156 112.26 25.0033C112.017 25.0909 111.773 25.1663 111.513 25.2466C111.189 25.344 110.863 25.4316 110.539 25.5144V22.5038H116.755C117.405 22.679 118.78 23.2558 118.78 25.0008C118.78 26.578 118.038 27.0793 117.507 27.2375H117.52Z" fill="#0AD24F"/>
<defs>
<linearGradient id="paint0_linear_1495_187208" x1="16.304" y1="37.328" x2="16.1653" y2="37.1625" gradientUnits="userSpaceOnUse">
<stop stop-color="#346D4D"/>
<stop offset="0.02" stop-color="#2E7C4D"/>
<stop offset="0.05" stop-color="#23974E"/>
<stop offset="0.09" stop-color="#1AAD4E"/>
<stop offset="0.14" stop-color="#13BE4F"/>
<stop offset="0.2" stop-color="#0EC94F"/>
<stop offset="0.28" stop-color="#0BD04F"/>
<stop offset="0.5" stop-color="#0AD24F"/>
<stop offset="0.71" stop-color="#0CD350"/>
<stop offset="0.79" stop-color="#13D553"/>
<stop offset="0.84" stop-color="#1ED85A"/>
<stop offset="0.88" stop-color="#2FDD62"/>
<stop offset="0.92" stop-color="#45E36E"/>
<stop offset="0.95" stop-color="#61EB7B"/>
<stop offset="0.98" stop-color="#80F48C"/>
<stop offset="1" stop-color="#98FB98"/>
</linearGradient>
<linearGradient id="paint1_linear_1495_187208" x1="43.346" y1="47.6232" x2="32.2697" y2="34.4246" gradientUnits="userSpaceOnUse">
<stop stop-color="#346D4D"/>
<stop offset="0.02" stop-color="#2E7C4D"/>
<stop offset="0.05" stop-color="#23974E"/>
<stop offset="0.09" stop-color="#1AAD4E"/>
<stop offset="0.14" stop-color="#13BE4F"/>
<stop offset="0.2" stop-color="#0EC94F"/>
<stop offset="0.28" stop-color="#0BD04F"/>
<stop offset="0.5" stop-color="#0AD24F"/>
<stop offset="0.71" stop-color="#0CD350"/>
<stop offset="0.79" stop-color="#13D553"/>
<stop offset="0.84" stop-color="#1ED85A"/>
<stop offset="0.88" stop-color="#2FDD62"/>
<stop offset="0.92" stop-color="#45E36E"/>
<stop offset="0.95" stop-color="#61EB7B"/>
<stop offset="0.98" stop-color="#80F48C"/>
<stop offset="1" stop-color="#98FB98"/>
</linearGradient>
<linearGradient id="paint2_linear_1495_187208" x1="26.979" y1="27.493" x2="9.59171" y2="6.76895" gradientUnits="userSpaceOnUse">
<stop stop-color="#346D4D"/>
<stop offset="0.02" stop-color="#2E7C4D"/>
<stop offset="0.05" stop-color="#23974E"/>
<stop offset="0.09" stop-color="#1AAD4E"/>
<stop offset="0.14" stop-color="#13BE4F"/>
<stop offset="0.2" stop-color="#0EC94F"/>
<stop offset="0.28" stop-color="#0BD04F"/>
<stop offset="0.5" stop-color="#0AD24F"/>
<stop offset="0.71" stop-color="#0CD350"/>
<stop offset="0.79" stop-color="#13D553"/>
<stop offset="0.84" stop-color="#1ED85A"/>
<stop offset="0.88" stop-color="#2FDD62"/>
<stop offset="0.92" stop-color="#45E36E"/>
<stop offset="0.95" stop-color="#61EB7B"/>
<stop offset="0.98" stop-color="#80F48C"/>
<stop offset="1" stop-color="#98FB98"/>
</linearGradient>
<linearGradient id="paint3_linear_1495_187208" x1="40.5694" y1="43.7582" x2="11.4754" y2="9.08343" gradientUnits="userSpaceOnUse">
<stop stop-color="#346D4D"/>
<stop offset="0.02" stop-color="#2E7C4D"/>
<stop offset="0.05" stop-color="#23974E"/>
<stop offset="0.09" stop-color="#1AAD4E"/>
<stop offset="0.14" stop-color="#13BE4F"/>
<stop offset="0.2" stop-color="#0EC94F"/>
<stop offset="0.28" stop-color="#0BD04F"/>
<stop offset="0.5" stop-color="#0AD24F"/>
<stop offset="0.71" stop-color="#0CD350"/>
<stop offset="0.79" stop-color="#13D553"/>
<stop offset="0.84" stop-color="#1ED85A"/>
<stop offset="0.88" stop-color="#2FDD62"/>
<stop offset="0.92" stop-color="#45E36E"/>
<stop offset="0.95" stop-color="#61EB7B"/>
<stop offset="0.98" stop-color="#80F48C"/>
<stop offset="1" stop-color="#98FB98"/>
</linearGradient>
<linearGradient id="paint4_linear_1495_187208" x1="39.864" y1="23.3044" x2="39.6425" y2="23.0415" gradientUnits="userSpaceOnUse">
<stop stop-color="#346D4D"/>
<stop offset="0.02" stop-color="#2E7C4D"/>
<stop offset="0.05" stop-color="#23974E"/>
<stop offset="0.09" stop-color="#1AAD4E"/>
<stop offset="0.14" stop-color="#13BE4F"/>
<stop offset="0.2" stop-color="#0EC94F"/>
<stop offset="0.28" stop-color="#0BD04F"/>
<stop offset="0.5" stop-color="#0AD24F"/>
<stop offset="0.71" stop-color="#0CD350"/>
<stop offset="0.79" stop-color="#13D553"/>
<stop offset="0.84" stop-color="#1ED85A"/>
<stop offset="0.88" stop-color="#2FDD62"/>
<stop offset="0.92" stop-color="#45E36E"/>
<stop offset="0.95" stop-color="#61EB7B"/>
<stop offset="0.98" stop-color="#80F48C"/>
<stop offset="1" stop-color="#98FB98"/>
</linearGradient>
</defs>
</svg>
